<?xml version="1.0" encoding="UTF-8" standalone="no"?>
<!DOCTYPE svg PUBLIC "-//W3C//DTD SVG 1.1//EN" "http://www.w3.org/Graphics/SVG/1.1/DTD/svg11.dtd">
<svg width="100%" height="100%" viewBox="0 0 2363 1418" version="1.1" xmlns="http://www.w3.org/2000/svg" xmlns:xlink="http://www.w3.org/1999/xlink" xml:space="preserve" xmlns:serif="http://www.serif.com/" style="fill-rule:evenodd;clip-rule:evenodd;stroke-linecap:round;stroke-linejoin:round;stroke-miterlimit:1.5;">
    <g id="Hintergrund" transform="matrix(1,0,0,1,59.0551,0)">
        <g transform="matrix(0.988756,0,0,1,21.9031,0)">
            <rect x="262.707" y="51.456" width="1685.34" height="51.512" style="fill:rgb(233,237,242);"/>
        </g>
        <path d="M290.507,65.517L290.507,88.164" style="fill:none;stroke:rgb(70,154,69);stroke-width:1.25px;"/>
        <path d="M291.081,81.33C291.081,81.33 293.24,79.462 295.681,79.462C300.313,79.462 302.779,83.66 305.998,83.66C309.216,83.66 311.416,82.056 311.416,82.056L311.416,67.563C311.416,67.563 309.952,69.297 305.998,69.297C300.001,69.297 301.125,65.517 295.493,65.517C293.253,65.517 291.082,66.978 291.082,66.978L291.081,81.33Z" style="fill:rgb(84,185,85);stroke:rgb(70,154,69);stroke-width:1.25px;"/>
        <g transform="matrix(1,0,0,1,-0.574687,0)">
            <path d="M291.081,81.33C291.081,81.33 293.24,79.462 295.681,79.462C300.313,79.462 302.779,83.66 305.998,83.66C309.216,83.66 311.416,82.056 311.416,82.056L311.416,67.563C311.416,67.563 309.952,69.297 305.998,69.297C300.001,69.297 301.125,65.517 295.493,65.517C293.253,65.517 291.082,66.978 291.082,66.978L291.081,81.33Z" style="fill:rgb(84,185,85);stroke:rgb(70,154,69);stroke-width:1.25px;"/>
        </g>
        <g transform="matrix(1,0,0,1,-0.607476,0)">
            <path d="M333.171,65.517L342.397,65.517L349.223,72.343L349.223,81.862L342.922,88.164L332.306,88.164L326.177,82.035L326.177,71.838L333.171,65.517Z" style="fill:rgb(237,167,168);stroke:rgb(219,162,164);stroke-width:1.25px;"/>
        </g>
    </g>
    <g transform="matrix(1.30766,0,0,1.30766,-16.5195,6.84218)">
        <g transform="matrix(0.764968,0,0,0.764456,57.3137,-4.8713)">
            <rect x="283.801" y="107.117" width="1664.25" height="1249.03" style="fill:none;stroke:rgb(128,134,152);stroke-width:4.17px;"/>
        </g>
        <g id="x-Achse" serif:id="x Achse">
            <g transform="matrix(4.16667,0,0,4.16667,42.908,71.1044)">
                <rect x="55.561" y="115.497" width="297.391" height="1" style="fill:rgb(237,28,36);"/>
            </g>
            <g transform="matrix(4.16667,0,0,4.16667,42.908,71.1086)">
                <path d="M351.157,115.996L348.966,112.393L349.089,112.312L354.964,114.645C357.011,115.096 359.057,115.546 361.104,115.996C359.057,116.447 357.011,116.897 354.964,117.348L349.089,119.681L348.966,119.619L351.157,115.996" style="fill:rgb(237,28,36);fill-rule:nonzero;"/>
            </g>
        </g>
        <g id="y-Achse" serif:id="y Achse">
            <g transform="matrix(4.16667,0,0,4.16667,42.908,105.075)">
                <rect x="207.833" y="1.418" width="1" height="221.005" style="fill:rgb(12,147,68);"/>
            </g>
            <g transform="matrix(4.16667,0,0,4.16667,42.908,-833.137)">
                <path d="M208.333,228.384L211.936,230.575L212.017,230.452L209.684,224.577C209.234,222.53 208.783,220.483 208.333,218.437C207.882,220.483 207.432,222.53 206.982,224.577L204.648,230.452L204.71,230.575L208.333,228.384" style="fill:rgb(12,147,68);fill-rule:nonzero;"/>
            </g>
        </g>
        <g id="Punkte">
            <g transform="matrix(0,-4.16667,-4.16667,0,1235.14,308.519)">
                <path d="M55.56,229.159C54.778,229.159 54.144,229.793 54.144,230.576C54.144,231.359 54.778,231.993 55.56,231.993C56.344,231.993 56.978,231.359 56.978,230.576C56.978,229.793 56.344,229.159 55.56,229.159" style="fill:rgb(35,31,32);fill-rule:nonzero;"/>
            </g>
            <g transform="matrix(0,-4.16667,-4.16667,0,758.406,785.256)">
                <path d="M55.561,114.742C54.778,114.742 54.144,115.376 54.144,116.159C54.144,116.942 54.778,117.576 55.561,117.576C56.345,117.576 56.978,116.942 56.978,116.159C56.978,115.376 56.345,114.742 55.561,114.742" style="fill:rgb(35,31,32);fill-rule:nonzero;"/>
            </g>
            <g transform="matrix(0,-4.16667,-4.16667,0,280.318,1263.34)">
                <path d="M55.562,0C54.779,0 54.144,0.635 54.144,1.417C54.144,2.2 54.779,2.834 55.562,2.834C56.345,2.834 56.979,2.2 56.979,1.417C56.979,0.635 56.345,0 55.562,0" style="fill:rgb(35,31,32);fill-rule:nonzero;"/>
            </g>
            <g transform="matrix(0,-4.16667,-4.16667,0,916.866,1899.89)">
                <path d="M208.333,-0C207.55,-0 206.915,0.635 206.915,1.417C206.915,2.2 207.55,2.835 208.333,2.835C209.116,2.835 209.75,2.2 209.75,1.417C209.75,0.635 209.116,-0 208.333,-0" style="fill:rgb(35,31,32);fill-rule:nonzero;"/>
            </g>
            <g transform="matrix(0,-4.16667,-4.16667,0,1553.42,2536.44)">
                <path d="M361.105,0C360.322,0 359.687,0.635 359.687,1.418C359.687,2.2 360.322,2.835 361.105,2.835C361.888,2.835 362.522,2.2 362.522,1.418C362.522,0.635 361.888,0 361.105,0" style="fill:rgb(35,31,32);fill-rule:nonzero;"/>
            </g>
            <g transform="matrix(0,-4.16667,-4.16667,0,2030.74,2059.12)">
                <path d="M361.105,114.557C360.322,114.557 359.688,115.192 359.688,115.974C359.688,116.757 360.322,117.392 361.105,117.392C361.888,117.392 362.522,116.757 362.522,115.974C362.522,115.192 361.888,114.557 361.105,114.557" style="fill:rgb(35,31,32);fill-rule:nonzero;"/>
            </g>
            <g transform="matrix(0,-4.16667,-4.16667,0,2508.24,1581.62)">
                <path d="M361.104,229.158C360.322,229.158 359.687,229.793 359.687,230.576C359.687,231.358 360.322,231.993 361.104,231.993C361.887,231.993 362.522,231.358 362.522,230.576C362.522,229.793 361.887,229.158 361.104,229.158" style="fill:rgb(35,31,32);fill-rule:nonzero;"/>
            </g>
            <g transform="matrix(0,-4.16667,-4.16667,0,1871.69,945.067)">
                <path d="M208.332,229.158C207.55,229.158 206.915,229.793 206.915,230.575C206.915,231.358 207.55,231.993 208.332,231.993C209.115,231.993 209.75,231.358 209.75,230.575C209.75,229.793 209.115,229.158 208.332,229.158" style="fill:rgb(35,31,32);fill-rule:nonzero;"/>
            </g>
            <g id="Mittelpunkt" transform="matrix(0,-4.16667,-4.16667,0,1394.19,1422.57)">
                <path d="M208.332,114.556C207.549,114.556 206.915,115.191 206.915,115.973C206.915,116.756 207.549,117.391 208.332,117.391C209.116,117.391 209.749,116.756 209.749,115.973C209.749,115.191 209.116,114.556 208.332,114.556" style="fill:rgb(35,31,32);fill-rule:nonzero;"/>
            </g>
        </g>
        <g id="Scratch" opacity="0.4">
            <g transform="matrix(4.16667,0,0,4.16667,42.908,476.209)">
                <path d="M110.853,67.587C110.852,67.587 110.851,67.586 110.851,67.586L110.952,67.182L110.853,67.587" style="fill:white;fill-rule:nonzero;"/>
            </g>
            <g transform="matrix(4.16667,0,0,4.16667,42.908,517.175)">
                <path d="M114.252,62.509L115.399,62.428C115.4,62.432 115.401,62.436 115.401,62.44C115.003,62.47 114.586,62.497 114.252,62.509" style="fill:white;fill-rule:nonzero;"/>
            </g>
            <g transform="matrix(4.16667,0,0,4.16667,42.908,490.213)">
                <path d="M152.094,65.865L151.832,65.543L151.833,65.543L152.094,65.865" style="fill:white;fill-rule:nonzero;"/>
            </g>
            <g transform="matrix(4.16667,0,0,4.16667,42.908,557.488)">
                <path d="M139.576,82.858C139.257,82.858 138.91,82.85 138.536,82.835C135.789,82.726 132.565,82.236 132.426,82.217L132.223,82.187L132.068,82.051C131.926,81.928 128.555,78.996 126.261,76.554C125.524,75.772 124.745,74.989 123.952,74.216C122.811,74.916 119.706,76.71 116.55,77.626C116.989,78.335 117.487,79.287 117.487,80.234C117.487,80.512 117.444,80.791 117.343,81.06C117.059,81.823 116.387,82.36 115.345,82.652C115.149,82.707 114.952,82.733 114.752,82.733C112.611,82.733 110.303,79.722 109.322,77.453C108.434,75.398 108.543,73.847 109.629,73.195C110.171,72.87 110.693,72.757 111.157,72.757C111.78,72.757 112.298,72.96 112.611,73.122C112.859,73.052 113.245,72.935 113.685,72.786C112.803,72.658 111.873,72.451 110.903,72.087C107.078,70.662 105.578,67.529 105.452,65.075C105.445,64.952 105.441,64.831 105.441,64.71C105.441,63.027 106.057,61.657 107.056,61.162C107.302,61.041 107.604,60.943 107.939,60.943C108.374,60.943 108.867,61.107 109.368,61.597C109.881,62.1 110.32,62.837 110.825,63.692C111.445,64.743 112.153,65.929 113.123,66.869C113.69,67.418 114.363,67.845 115.133,68.151C114.839,67.39 114.664,66.746 114.587,66.43C114.523,66.165 114.493,65.922 114.493,65.697C114.493,64.347 115.555,63.689 116.36,63.192C116.618,63.03 116.868,62.878 117.082,62.711L117.999,61.97C118.896,61.225 119.759,60.514 120.779,60.198C118.925,58.949 117.447,57.378 116.387,55.518C115.948,54.749 115.657,53.968 115.484,53.192C115.721,53.174 115.949,53.155 116.148,53.138C116.31,53.825 116.573,54.515 116.961,55.193C118.296,57.535 120.306,59.385 122.844,60.659C122.509,60.568 122.191,60.526 121.887,60.526L121.885,60.526C121.017,60.526 120.282,60.874 119.579,61.362C118.873,61.852 118.187,62.486 117.39,63.102C116.927,63.461 116.35,63.746 115.867,64.117C115.386,64.482 114.986,64.979 114.99,65.708C114.99,65.895 115.015,66.095 115.067,66.31C115.232,66.977 115.576,68.089 116.134,69.155C115.006,68.906 113.725,68.389 112.649,67.352C111.488,66.228 110.702,64.799 110.014,63.649C109.325,62.501 108.737,61.617 107.93,61.612C107.745,61.612 107.551,61.66 107.346,61.761C106.589,62.139 106.107,63.299 106.106,64.713C106.106,65.605 106.3,66.601 106.748,67.568C107.106,68.529 107.545,69.227 108.128,69.676C108.238,69.761 108.317,69.799 108.374,69.799L108.375,69.799C109.092,70.461 110,71.036 111.13,71.457C113.146,72.212 115.012,72.29 116.53,72.306C116.323,72.41 116.097,72.521 115.849,72.638L114.601,73.116L114.572,73.182C113.605,73.543 112.658,73.807 112.514,73.847C112.413,73.777 111.879,73.431 111.156,73.431C110.795,73.431 110.387,73.518 109.968,73.77C109.562,74.014 109.388,74.47 109.389,75.034C109.39,76.248 110.178,77.996 111.239,79.449C112.302,80.899 113.634,82.057 114.759,82.06C114.895,82.06 115.029,82.043 115.158,82.007C116.391,81.661 116.813,80.979 116.81,80.234C116.809,79.533 116.45,78.782 116.093,78.176C115.915,77.873 115.737,77.607 115.604,77.403C115.557,77.333 115.516,77.269 115.482,77.214C119.589,76.258 124.032,73.374 124.034,73.373L124.034,73.372C124.826,74.13 125.758,75.056 126.745,76.105C129.042,78.547 132.5,81.552 132.501,81.553L132.512,81.563L132.527,81.565C132.529,81.566 136.675,82.197 139.541,82.197C140.257,82.197 140.892,82.158 141.367,82.059C141.839,81.958 142.166,81.804 142.236,81.528C142.308,81.22 142.342,80.936 142.342,80.674C142.343,79.391 141.528,78.633 140.458,78.21C139.387,77.784 138.053,77.678 136.973,77.677C135.967,77.677 135.181,77.77 135.034,77.789C134.82,77.593 132.8,75.734 131.838,74.827C131.01,74.044 129.687,72.666 128.571,71.484C128.476,71.383 128.383,71.285 128.292,71.188L128.317,71.159L128.339,71.19C128.95,70.754 129.577,70.036 130.385,68.924C130.63,68.585 130.886,68.136 131.112,67.702L131.1,67.768L131.211,67.809C131.451,67.919 132.102,68.311 133.352,69.654C134.173,70.536 134.906,70.844 135.611,70.844L135.613,70.844C136.347,70.844 137.043,70.515 137.781,70.179C138.949,69.639 141.702,68.135 141.714,66.528C141.714,66.143 141.55,65.755 141.172,65.384C140.629,64.852 140.139,64.647 139.68,64.647C138.489,64.653 137.542,65.993 136.293,66.387C136.076,66.456 135.877,66.487 135.693,66.487L135.685,66.487C134.411,66.487 133.785,64.977 133.03,64.159C132.286,63.357 131.496,62.858 131.299,62.739L131.311,62.651C131.591,62.66 131.874,62.665 132.16,62.665C132.23,62.665 132.299,62.664 132.369,62.664C132.503,62.668 132.672,62.671 132.871,62.671C133.864,62.671 135.62,62.593 137.622,62.155C137.681,62.144 137.739,62.133 137.797,62.122C144.293,60.89 147.201,57.768 148.054,55.114C148.279,55.172 148.514,55.225 148.756,55.268C148.518,56.031 148.139,56.793 147.628,57.513C146.256,59.445 143.33,61.961 137.176,62.957C135.827,63.171 134.485,63.297 133.165,63.337C133.283,63.454 133.407,63.574 133.527,63.702C133.757,63.947 133.964,64.243 134.169,64.523C134.728,65.302 135.136,65.814 135.698,65.814C135.819,65.814 135.95,65.791 136.089,65.748C136.534,65.605 136.963,65.299 137.415,64.971C138.069,64.502 138.804,63.976 139.685,63.976C139.75,63.976 139.816,63.979 139.883,63.985C140.493,64.04 141.071,64.341 141.649,64.903C142.395,65.637 142.445,66.39 142.358,66.893C142.015,68.843 138.989,70.367 138.063,70.79L138,70.821C137.261,71.155 136.503,71.5 135.669,71.514C135.65,71.514 135.63,71.515 135.611,71.515C134.638,71.515 133.739,71.056 132.859,70.111C132.137,69.333 131.642,68.908 131.333,68.678C131.19,68.919 131.052,69.132 130.923,69.31C130.281,70.199 129.765,70.816 129.281,71.268C130.643,72.705 131.658,73.743 132.298,74.348C132.859,74.876 133.91,75.851 135.267,77.098C135.626,77.064 136.243,77.017 136.976,77.017C137.179,77.017 137.392,77.02 137.61,77.029C139.966,77.123 141.576,77.721 142.404,78.807C142.988,79.576 143.152,80.545 142.883,81.68C142.689,82.508 141.741,82.858 139.576,82.858M116.592,72.274L116.592,72.264L116.598,72.264L116.595,72.215L117.435,71.822C117.203,71.954 116.924,72.105 116.592,72.274M124.126,61.254C124.109,61.241 124.092,61.228 124.075,61.215C124.097,61.224 124.119,61.232 124.141,61.241L124.126,61.254M148.871,54.85C148.633,54.809 148.397,54.757 148.172,54.699C148.357,53.95 148.378,53.25 148.272,52.656C148.257,52.576 148.241,52.498 148.222,52.421C148.133,52.036 147.992,51.683 147.814,51.361C148.048,51.322 148.292,51.278 148.533,51.23C148.733,51.622 148.886,52.054 148.972,52.528C149.025,52.818 149.049,53.117 149.049,53.419C149.049,53.886 148.989,54.367 148.871,54.85M116.269,53.184C116.265,53.165 116.26,53.147 116.256,53.128C116.26,53.147 116.265,53.166 116.269,53.184M115.401,52.765C115.401,52.761 115.4,52.757 115.399,52.753C115.318,52.267 115.281,51.784 115.281,51.308C115.281,50.898 115.308,50.493 115.357,50.095C115.587,50.233 115.793,50.363 115.973,50.482C115.95,50.746 115.937,51.014 115.937,51.284C115.937,51.755 115.975,52.232 116.061,52.712C115.86,52.729 115.634,52.748 115.401,52.765M116.167,52.703C116.082,52.227 116.044,51.752 116.044,51.284C116.044,51.037 116.055,50.791 116.075,50.549C116.079,50.552 116.084,50.555 116.089,50.558C116.029,51.258 116.046,51.978 116.171,52.703L116.167,52.703M147.568,50.965C146.494,49.419 144.624,48.689 144.304,48.571C144.3,48.374 144.271,47.799 144.09,46.979C143.9,46.091 143.533,44.907 142.824,43.6C141.959,42.003 139.089,39.675 138.851,39.482L137.633,33.658L133.758,37.143L133.829,37.222L137.567,33.862L137.572,33.886L133.861,37.226L131.975,37.65C131.19,37.538 130.279,37.451 129.341,37.451L129.178,37.452C126.834,37.477 124.541,38.145 124.538,38.146L124.552,38.192L124.325,38.034L118.325,33.803L119.099,43.263C118.825,43.602 116.518,46.49 116.028,50.003C115.847,49.887 115.645,49.763 115.425,49.633C115.951,46.501 117.776,43.903 118.422,43.061C118.379,42.54 117.556,32.449 117.556,32.449L118.8,33.329L118.862,33.367C118.862,33.367 124.256,37.119 124.754,37.466C125.488,37.278 127.331,36.858 129.238,36.836C129.293,36.835 129.348,36.835 129.403,36.835C130.069,36.835 130.766,36.878 131.522,36.964C131.708,36.921 133.166,36.593 133.452,36.529C133.711,36.299 138.04,32.404 138.04,32.404L138.059,32.495L138.11,32.45C138.11,32.45 139.419,38.71 139.514,39.16C140.227,39.753 142.646,41.808 143.467,43.328C144.624,45.46 144.917,47.292 144.993,48.143C145.292,48.278 145.693,48.478 146.13,48.755C146.861,49.209 147.713,49.891 148.307,50.834C148.057,50.882 147.805,50.926 147.568,50.965M116.143,50.077C116.137,50.073 116.132,50.07 116.127,50.067C116.35,48.406 116.988,46.879 117.626,45.698C118.022,44.965 118.418,44.366 118.715,43.949C118.863,43.74 118.987,43.578 119.074,43.467L119.174,43.341L119.2,43.308L119.207,43.299L119.212,43.294L119.214,43.29L119.214,43.288L119.217,43.323C119.227,43.312 119.231,43.307 119.232,43.307C119.236,43.307 116.653,46.346 116.143,50.077M119.21,43.23L119.203,43.227L118.45,34.022L118.46,34.029L119.21,43.23M124.619,38.239L124.614,38.235C124.766,38.193 125.281,38.054 126.001,37.913C126.188,37.876 126.39,37.839 126.602,37.804C125.441,38.001 124.619,38.239 124.619,38.239" style="fill:rgb(65,60,60);fill-rule:nonzero;"/>
            </g>
            <g transform="matrix(4.16667,0,0,4.16667,42.908,560.467)">
                <path d="M139.544,81.375L139.541,81.375C138.115,81.376 136.365,81.218 134.972,81.06C133.676,80.914 132.691,80.767 132.559,80.747C132.452,80.654 131.63,79.936 130.556,78.951C129.406,77.895 127.968,76.534 126.822,75.317C124.441,72.786 122.381,70.971 121.825,70.491C122.285,70.117 122.496,69.666 122.492,69.191C122.483,68.335 121.882,67.503 121.26,66.77C120.978,66.441 120.688,66.135 120.436,65.867C120.901,65.538 121.858,64.863 122.743,64.256C123.154,63.973 123.632,63.579 124.016,63.129C124.397,62.678 124.697,62.171 124.701,61.632C124.704,61.231 124.518,60.852 124.126,60.539L124.141,60.526C126.249,61.368 128.662,61.851 131.311,61.936L131.299,62.024C131.269,62.006 131.253,61.996 131.252,61.996L131.211,62.069C131.211,62.07 131.437,62.198 131.771,62.442C132.105,62.686 132.545,63.045 132.968,63.501C133.711,64.293 134.338,65.85 135.693,65.856C135.887,65.856 136.095,65.823 136.318,65.752C137.597,65.339 138.549,64.016 139.671,64.016L139.68,64.016C140.113,64.016 140.579,64.207 141.113,64.729C141.479,65.089 141.629,65.452 141.629,65.813C141.641,67.327 138.91,68.86 137.746,69.388C137.008,69.724 136.322,70.045 135.614,70.045L135.613,70.045C134.933,70.045 134.226,69.754 133.414,68.881C131.81,67.16 131.184,66.986 131.12,66.971C131.516,66.21 131.82,65.496 131.821,65.495L131.723,65.453L131.722,65.453C131.722,65.454 131.534,65.896 131.261,66.454C131.194,66.591 131.122,66.735 131.047,66.881C131.13,66.379 130.929,65.644 129.604,64.869C128.822,64.41 128.171,64.237 127.621,64.237C126.491,64.237 125.791,64.97 125.267,65.463C123.912,66.723 126.731,69.081 126.731,69.081L127.204,69.467C128.355,70.702 130.57,73.06 131.765,74.189C132.781,75.148 134.98,77.169 134.98,77.169L134.998,77.186L135.023,77.183C135.025,77.183 135.863,77.069 136.971,77.069L136.977,77.069C138.05,77.069 139.371,77.177 140.418,77.594C141.468,78.014 142.233,78.727 142.235,79.959C142.235,80.212 142.202,80.488 142.132,80.788C142.092,80.983 141.81,81.144 141.345,81.239C140.884,81.336 140.254,81.375 139.544,81.375M114.754,81.261C113.688,81.261 112.359,80.125 111.307,78.684C110.252,77.243 109.472,75.499 109.473,74.319C109.474,73.77 109.639,73.351 110.011,73.127C110.418,72.883 110.809,72.8 111.156,72.8C111.542,72.8 111.874,72.903 112.109,73.006C112.344,73.109 112.48,73.211 112.481,73.211L112.497,73.224L112.517,73.218C112.518,73.218 114.252,72.749 115.528,72.166C116.902,71.535 117.708,71.059 118.114,70.796C118.574,71.081 119.093,71.255 119.675,71.256C120.092,71.256 120.534,71.165 120.997,70.969C121.289,70.848 121.536,70.71 121.739,70.558C121.961,70.749 122.454,71.181 123.13,71.807C123.386,72.043 123.669,72.308 123.972,72.598C123.818,72.697 122.593,73.476 120.893,74.332C119.318,75.126 117.337,75.984 115.438,76.423C115.404,76.362 115.386,76.321 115.388,76.31L115.304,76.306L115.304,76.31C115.306,76.346 115.323,76.389 115.352,76.442C115.09,76.501 114.829,76.552 114.572,76.593L114.585,76.676C114.853,76.633 115.123,76.58 115.396,76.518C115.433,76.579 115.479,76.65 115.533,76.734C115.934,77.346 116.728,78.511 116.726,79.519C116.723,80.229 116.346,80.865 115.135,81.211C115.014,81.245 114.888,81.261 114.759,81.261L114.754,81.261M114.572,72.467L114.601,72.401L115.849,71.923C115.735,71.977 115.616,72.032 115.493,72.089C115.202,72.222 114.885,72.35 114.572,72.467M116.598,71.549L116.592,71.549L116.592,71.507C115.065,71.493 113.188,71.423 111.159,70.663C110.052,70.25 109.16,69.689 108.455,69.042C108.653,68.775 108.197,67.275 109.051,66.608C109.551,66.217 110.213,66.112 110.779,66.112C111.431,66.112 111.955,66.251 111.955,66.251C111.955,66.251 110.563,64.191 109.772,62.948C109.062,61.838 108.775,61.076 107.911,61.076C107.808,61.076 107.696,61.087 107.574,61.11C107.354,61.15 107.157,61.26 106.983,61.424C107.106,61.294 107.24,61.192 107.383,61.121C107.579,61.025 107.759,60.981 107.93,60.981L107.937,60.981C108.668,60.981 109.257,61.829 109.942,62.977C110.629,64.126 111.418,65.561 112.591,66.698C113.703,67.77 115.03,68.292 116.186,68.538C116.265,68.686 116.349,68.833 116.437,68.977C116.859,69.671 117.388,70.32 118.036,70.746C117.957,70.797 117.864,70.855 117.756,70.92C117.661,70.977 117.554,71.04 117.435,71.107L116.595,71.5L116.598,71.549M119.666,70.825C118.462,70.825 117.51,69.91 116.805,68.753C116.102,67.6 115.67,66.24 115.486,65.492C115.441,65.307 115.421,65.141 115.421,64.993C115.425,64.429 115.697,64.084 116.131,63.743C116.563,63.408 117.144,63.121 117.654,62.728C118.468,62.097 119.155,61.466 119.824,61.002C120.496,60.537 121.137,60.243 121.887,60.242C122.285,60.242 122.718,60.325 123.21,60.521C124.042,60.862 124.265,61.243 124.269,61.632C124.273,61.996 124.039,62.439 123.687,62.849C123.338,63.259 122.883,63.637 122.499,63.9C121.581,64.53 120.587,65.232 120.141,65.547C119.974,65.362 119.847,65.207 119.787,65.105L119.416,65.324C119.543,65.537 119.766,65.78 120.039,66.073C120.446,66.51 120.96,67.041 121.367,67.593C121.776,68.144 122.064,68.715 122.06,69.191C122.054,69.692 121.785,70.156 120.829,70.572C120.411,70.749 120.028,70.825 119.675,70.825L119.666,70.825M128.292,70.473C128.125,70.296 127.965,70.125 127.814,69.964L128.303,70.362C128.303,70.362 128.6,70.133 128.931,69.819C128.705,70.049 128.489,70.237 128.277,70.388L128.317,70.444L128.292,70.473M129.603,69.059C129.616,69.039 129.629,69.019 129.642,68.999C129.929,68.536 130.364,67.982 130.587,67.708C130.49,67.866 130.393,68.015 130.298,68.147C130.051,68.487 129.82,68.79 129.603,69.059M131.657,61.838C124.904,61.71 119.672,59.015 117.053,54.425C116.684,53.779 116.43,53.123 116.269,52.469C116.265,52.451 116.26,52.432 116.256,52.413C116.598,52.384 116.832,52.361 116.833,52.361L116.791,51.932C116.79,51.932 116.536,51.956 116.171,51.988C116.046,51.263 116.029,50.543 116.089,49.843C116.327,50.002 116.513,50.136 116.641,50.23C116.774,50.328 116.84,50.382 116.841,50.382L117.111,50.046C117.107,50.043 116.758,49.762 116.143,49.362C116.653,45.631 119.236,42.592 119.232,42.592C119.231,42.592 119.227,42.597 119.217,42.608L119.214,42.573L119.221,42.548L119.216,42.524L119.211,42.516L119.21,42.515L118.46,33.314L125.607,38.354L125.669,38.267L124.611,37.521C124.612,37.521 124.613,37.52 124.614,37.52L124.619,37.524C124.619,37.524 125.441,37.286 126.602,37.089C127.365,36.961 128.27,36.854 129.179,36.844L129.341,36.843C130.643,36.843 131.897,37.012 132.826,37.182C133.754,37.352 134.354,37.521 134.356,37.521L134.385,37.418C134.383,37.418 133.384,37.137 131.975,36.935L133.861,36.511L137.572,33.171L138.754,38.826L138.769,38.838C138.771,38.839 139.539,39.453 140.42,40.275C141.3,41.095 142.292,42.124 142.73,42.936C144.153,45.558 144.187,47.68 144.187,47.874L144.187,47.889L144.186,47.928L144.223,47.94C144.223,47.94 144.436,48.012 144.766,48.165C145.462,48.486 146.666,49.166 147.451,50.269C147.447,50.27 147.442,50.27 147.437,50.271C146.107,48.494 143.68,47.997 143.68,47.997L142.847,46.939C142.887,46.707 142.907,46.464 142.907,46.214C142.906,45.178 142.573,43.996 141.908,42.876L141.908,42.875L141.887,42.84C141.884,42.835 141.881,42.829 141.877,42.824C140.788,41.023 139.161,39.888 137.725,39.88L137.723,39.88C137.31,39.88 136.912,39.979 136.561,40.191C135.752,40.68 135.371,41.636 135.372,42.731C135.372,43.783 135.718,44.986 136.404,46.124C136.891,46.927 137.484,47.598 138.12,48.095C138.075,48.316 137.959,48.685 137.663,49.043C137.504,48.966 137.264,48.933 136.993,48.91C136.534,48.876 135.969,48.89 135.513,48.873L135.487,48.872C135.096,48.856 134.585,48.778 134.151,48.778C133.905,48.778 133.683,48.802 133.516,48.882C133.349,48.96 133.239,49.107 133.24,49.322L133.24,49.329C133.244,49.47 133.312,49.621 133.427,49.776C132.176,49.462 131.033,48.941 130.604,48.734C130.805,48.244 130.905,47.691 130.905,47.114C130.904,46.108 130.604,45.016 129.993,44.001C128.953,42.277 127.298,41.236 125.757,41.232L125.755,41.232C125.211,41.232 124.68,41.365 124.209,41.65C123.186,42.267 122.672,43.442 122.674,44.747C122.674,45.752 122.975,46.845 123.588,47.861C124.253,48.961 125.168,49.784 126.143,50.236C125.108,50.383 122.301,50.969 122.105,53.034C121.569,58.692 129.827,61.326 131.657,61.838M137.797,61.407C143.936,60.228 146.875,57.356 147.892,54.787C147.948,54.657 147.998,54.527 148.043,54.396C148.046,54.397 148.05,54.398 148.054,54.399C147.201,57.053 144.293,60.175 137.797,61.407M139.973,60.771C140.499,60.584 141.028,60.368 141.552,60.118C143.9,59.003 145.748,57.742 146.911,56.348C145.684,58.059 143.5,59.728 139.973,60.771M148.172,53.984C148.169,53.983 148.166,53.983 148.163,53.982C148.199,53.83 148.228,53.677 148.25,53.522C148.3,53.22 148.325,52.928 148.325,52.65C148.325,52.382 148.302,52.127 148.259,51.889C148.248,51.827 148.236,51.766 148.222,51.706C148.241,51.783 148.257,51.861 148.272,51.941C148.378,52.535 148.357,53.235 148.172,53.984M147.763,50.775C147.743,50.738 147.722,50.702 147.701,50.665L147.703,50.665C147.724,50.701 147.744,50.738 147.763,50.775M144.304,47.856C144.301,47.855 144.297,47.853 144.293,47.852C144.292,47.702 144.274,47.121 144.09,46.264C144.271,47.084 144.3,47.659 144.304,47.856M138.851,38.767L138.361,36.423L138.851,38.767M124.553,37.48L124.325,37.319L124.552,37.477L124.553,37.48" style="fill:rgb(250,180,80);fill-rule:nonzero;"/>
            </g>
            <g transform="matrix(4.16667,0,0,4.16667,42.908,625.521)">
                <path d="M108.374,53.471C108.317,53.471 108.238,53.433 108.128,53.348C107.545,52.899 107.106,52.201 106.748,51.24C107.112,52.027 107.644,52.794 108.375,53.471L108.374,53.471M108.455,53.429C106.826,51.936 106.191,49.99 106.19,48.385C106.189,47.271 106.498,46.325 106.983,45.811C107.157,45.647 107.354,45.537 107.574,45.497C107.696,45.474 107.808,45.463 107.911,45.463C108.775,45.463 109.062,46.225 109.772,47.335C110.563,48.578 111.955,50.638 111.955,50.638C111.955,50.638 111.431,50.499 110.779,50.499C110.213,50.499 109.551,50.604 109.051,50.995C108.197,51.662 108.653,53.162 108.455,53.429" style="fill:white;fill-rule:nonzero;"/>
            </g>
            <g transform="matrix(4.16667,0,0,4.16667,42.908,644.017)">
                <path d="M128.303,50.31L127.814,49.912C127.072,49.119 126.547,48.549 126.546,48.548L126.467,48.62C126.468,48.62 126.755,48.932 127.204,49.415L126.731,49.029C126.731,49.029 123.912,46.671 125.267,45.411C125.791,44.918 126.491,44.185 127.621,44.185C128.171,44.185 128.822,44.358 129.604,44.817C130.929,45.592 131.13,46.327 131.047,46.829C130.902,47.108 130.745,47.395 130.587,47.656C130.364,47.93 129.929,48.484 129.642,48.947C129.629,48.967 129.616,48.987 129.603,49.007C129.366,49.3 129.144,49.552 128.931,49.767C128.6,50.081 128.303,50.31 128.303,50.31" style="fill:white;fill-rule:nonzero;"/>
            </g>
            <g transform="matrix(4.16667,0,0,4.16667,42.908,536.917)">
                <path d="M132.871,67.608C132.672,67.608 132.503,67.605 132.369,67.601C133.85,67.589 135.399,67.458 137.006,67.199C137.215,67.165 137.42,67.129 137.622,67.092C135.62,67.53 133.864,67.608 132.871,67.608M132.16,67.495C131.992,67.495 131.824,67.493 131.657,67.49C129.827,66.978 121.569,64.344 122.105,58.686C122.301,56.621 125.108,56.035 126.143,55.888C126.696,56.144 127.267,56.281 127.824,56.282L127.825,56.282C128.369,56.282 128.899,56.148 129.37,55.864C129.94,55.521 130.351,55.003 130.604,54.386C131.033,54.593 132.176,55.114 133.427,55.428C133.651,55.73 134.05,56.044 134.483,56.323C135.141,56.741 135.873,57.065 136.234,57.067L136.271,57.066C136.61,57.035 136.995,56.631 137.311,56.18C137.625,55.725 137.862,55.228 137.865,54.968L137.862,54.926C137.844,54.82 137.772,54.747 137.663,54.695C137.959,54.337 138.075,53.968 138.12,53.747C138.907,54.364 139.759,54.714 140.554,54.719L140.556,54.719C140.97,54.719 141.369,54.619 141.72,54.407C142.343,54.03 142.711,53.374 142.847,52.591L143.68,53.649C143.68,53.649 146.107,54.146 147.437,55.923C146.764,56.032 146.238,56.097 146.237,56.098L146.291,56.526C146.294,56.525 146.928,56.446 147.701,56.317C147.722,56.354 147.743,56.39 147.763,56.427C147.944,56.771 148.081,57.148 148.154,57.56C148.196,57.792 148.218,58.04 148.218,58.302C148.218,58.709 148.165,59.147 148.05,59.604C147.772,59.53 147.513,59.448 147.29,59.372C147.042,59.287 146.837,59.208 146.695,59.151C146.552,59.093 146.474,59.058 146.474,59.058L146.297,59.452C146.307,59.456 147.007,59.771 147.93,60.019C147.72,60.663 147.388,61.334 146.911,62C145.748,63.394 143.9,64.655 141.552,65.77C141.028,66.02 140.499,66.236 139.973,66.423C139.069,66.691 138.076,66.917 136.989,67.093C135.312,67.363 133.698,67.495 132.16,67.495M128.769,57.873C128.516,58.614 128.321,59.422 128.32,60.237C128.319,61.124 128.558,62.025 129.207,62.822C129.856,63.619 130.902,64.305 132.492,64.81C133.1,65.004 133.702,65.088 134.287,65.088C138.252,65.072 141.386,61.291 141.405,61.281L141.651,60.989L141.274,60.93C141.272,60.929 140.419,60.794 139.327,60.599C138.236,60.404 136.908,60.148 135.973,59.91C135.037,59.671 133.299,59.126 131.801,58.643C130.303,58.16 129.044,57.739 129.042,57.738L128.838,57.67L128.769,57.873M134.307,64.657L134.287,64.657C133.744,64.657 133.187,64.579 132.622,64.399C131.086,63.911 130.122,63.263 129.542,62.55C128.962,61.836 128.753,61.05 128.752,60.237C128.752,59.562 128.901,58.871 129.11,58.215C130.075,58.537 134.182,59.897 135.866,60.328C137.385,60.714 139.861,61.135 140.815,61.292C139.998,62.16 137.34,64.657 134.307,64.657M147.892,60.439C147.944,60.307 147.992,60.176 148.034,60.046C148.037,60.047 148.04,60.048 148.043,60.048C147.998,60.179 147.948,60.309 147.892,60.439M148.163,59.634C148.16,59.633 148.156,59.632 148.153,59.631C148.192,59.477 148.224,59.324 148.25,59.174C148.228,59.329 148.199,59.482 148.163,59.634" style="fill:white;fill-rule:nonzero;"/>
            </g>
            <g transform="matrix(4.16667,0,0,4.16667,42.908,478.575)">
                <path d="M132.16,81.604C131.874,81.604 131.591,81.599 131.311,81.59C128.662,81.505 126.249,81.022 124.141,80.18C124.119,80.171 124.097,80.163 124.075,80.154C123.885,80.011 123.651,79.883 123.37,79.774C123.19,79.702 123.015,79.644 122.844,79.598C120.306,78.324 118.296,76.474 116.961,74.132C116.573,73.454 116.31,72.764 116.148,72.077C116.185,72.074 116.221,72.071 116.256,72.067C116.26,72.086 116.265,72.104 116.269,72.123C116.43,72.777 116.684,73.433 117.053,74.079C119.672,78.669 124.904,81.364 131.657,81.492C131.824,81.495 131.992,81.497 132.16,81.497C133.698,81.497 135.312,81.365 136.989,81.095C138.076,80.919 139.069,80.693 139.973,80.425C143.5,79.382 145.684,77.713 146.911,76.002C147.388,75.336 147.72,74.665 147.93,74.021C147.965,74.03 147.999,74.039 148.034,74.048C147.992,74.178 147.944,74.309 147.892,74.441C146.875,77.01 143.936,79.882 137.797,81.061C137.739,81.072 137.681,81.083 137.622,81.094C137.42,81.131 137.215,81.167 137.006,81.201C135.399,81.46 133.85,81.591 132.369,81.603C132.299,81.603 132.23,81.604 132.16,81.604M148.153,73.633C148.119,73.624 148.084,73.615 148.05,73.606C148.165,73.149 148.218,72.711 148.218,72.304C148.218,72.042 148.196,71.794 148.154,71.562C148.081,71.15 147.944,70.773 147.763,70.429C147.744,70.392 147.724,70.355 147.703,70.319C147.74,70.313 147.777,70.307 147.814,70.3C147.992,70.622 148.133,70.975 148.222,71.36C148.236,71.42 148.248,71.481 148.259,71.543C148.302,71.781 148.325,72.036 148.325,72.304C148.325,72.582 148.3,72.874 148.25,73.176C148.224,73.326 148.192,73.479 148.153,73.633M116.061,71.651C115.975,71.171 115.937,70.694 115.937,70.223C115.937,69.953 115.95,69.685 115.973,69.421C116.002,69.44 116.031,69.458 116.058,69.477C116.064,69.48 116.069,69.484 116.075,69.488C116.055,69.73 116.044,69.976 116.044,70.223C116.044,70.691 116.082,71.166 116.167,71.642C116.133,71.645 116.097,71.648 116.061,71.651M147.451,69.923C146.666,68.82 145.462,68.14 144.766,67.819C144.436,67.666 144.223,67.594 144.223,67.594L144.186,67.582L144.187,67.543L144.187,67.528C144.187,67.334 144.153,65.212 142.73,62.59C142.292,61.778 141.3,60.749 140.42,59.929C139.539,59.107 138.771,58.493 138.769,58.492L138.754,58.48L137.567,52.801L133.829,56.161L133.758,56.082L137.633,52.597L138.851,58.421C139.089,58.614 141.959,60.942 142.824,62.539C143.533,63.846 143.9,65.03 144.09,65.918C144.274,66.775 144.292,67.356 144.293,67.506C144.297,67.507 144.301,67.509 144.304,67.51C144.624,67.628 146.494,68.358 147.568,69.904C147.546,69.908 147.524,69.911 147.503,69.915C147.485,69.917 147.468,69.92 147.451,69.923M116.127,69.006C116.095,68.985 116.062,68.964 116.028,68.942C116.518,65.429 118.825,62.541 119.099,62.202L118.325,52.742L124.325,56.973L124.553,57.134L124.568,57.187C124.569,57.187 124.583,57.183 124.611,57.175L125.669,57.921L125.607,58.008L118.46,52.968L118.45,52.961L119.203,62.166L119.21,62.169L119.211,62.17L119.216,62.178L119.221,62.202L119.214,62.227L119.214,62.229L119.212,62.233L119.207,62.238L119.2,62.247L119.174,62.28L119.074,62.406C118.987,62.517 118.863,62.679 118.715,62.888C118.418,63.305 118.022,63.904 117.626,64.637C116.988,65.818 116.35,67.345 116.127,69.006M133.829,56.161L133.83,56.161L133.83,56.16L133.829,56.16L133.829,56.161Z" style="fill:rgb(93,69,57);fill-rule:nonzero;"/>
            </g>
            <g transform="matrix(4.16667,0,0,4.16667,42.908,392.642)">
                <path d="M124.568,77.811L124.553,77.758L124.552,77.755L124.538,77.709C124.541,77.708 126.834,77.04 129.178,77.015L129.341,77.014C130.279,77.014 131.19,77.101 131.975,77.213C133.384,77.415 134.383,77.696 134.385,77.696L134.356,77.799C134.354,77.799 133.754,77.63 132.826,77.46C131.897,77.29 130.643,77.121 129.341,77.121L129.179,77.122C128.27,77.132 127.365,77.239 126.602,77.367C126.39,77.402 126.188,77.439 126.001,77.476C125.281,77.617 124.766,77.756 124.614,77.798C124.613,77.798 124.612,77.799 124.611,77.799C124.583,77.807 124.569,77.811 124.568,77.811" style="fill:rgb(93,69,57);fill-rule:nonzero;"/>
            </g>
            <g transform="matrix(4.16667,0,0,4.16667,42.908,465.946)">
                <path d="M127.816,72.884C126.477,72.884 124.929,71.939 123.958,70.323C123.382,69.371 123.105,68.351 123.105,67.432C123.107,66.233 123.57,65.223 124.431,64.704C124.832,64.463 125.281,64.348 125.757,64.348L125.765,64.348C127.105,64.348 128.653,65.292 129.624,66.909L129.809,66.797L129.624,66.909C130.197,67.859 130.473,68.879 130.473,69.799C130.472,70.998 130.009,72.01 129.147,72.528C128.747,72.769 128.299,72.883 127.824,72.884L127.816,72.884M127.668,69.223C127.302,69.223 126.998,69.538 126.984,69.938C126.967,70.348 127.26,70.694 127.638,70.706C127.647,70.707 127.655,70.707 127.663,70.707C128.031,70.707 128.336,70.392 128.347,69.987C128.361,69.579 128.07,69.235 127.693,69.224C127.684,69.223 127.676,69.223 127.668,69.223" style="fill:white;fill-rule:nonzero;"/>
            </g>
            <g transform="matrix(4.16667,0,0,4.16667,42.908,465.946)">
                <path d="M127.825,73.315L127.824,73.315C127.267,73.314 126.696,73.177 126.143,72.921C125.168,72.469 124.253,71.646 123.588,70.546C122.975,69.53 122.674,68.437 122.674,67.432C122.672,66.127 123.186,64.952 124.209,64.335C124.68,64.05 125.211,63.917 125.755,63.917L125.757,63.917C127.298,63.921 128.953,64.962 129.993,66.686C130.604,67.701 130.904,68.793 130.905,69.799C130.905,70.376 130.805,70.929 130.604,71.419C130.351,72.036 129.94,72.554 129.37,72.897C128.899,73.181 128.369,73.315 127.825,73.315M125.765,64.348L125.757,64.348C125.281,64.348 124.832,64.463 124.431,64.704C123.57,65.223 123.107,66.233 123.105,67.432C123.105,68.351 123.382,69.371 123.958,70.323C124.929,71.939 126.477,72.884 127.816,72.884L127.824,72.884C128.299,72.883 128.747,72.769 129.147,72.528C130.009,72.01 130.472,70.998 130.473,69.799C130.473,68.879 130.197,67.859 129.624,66.909L129.809,66.797L129.624,66.909C128.653,65.292 127.105,64.348 125.765,64.348" style="fill:rgb(93,69,57);fill-rule:nonzero;"/>
            </g>
            <g transform="matrix(4.16667,0,0,4.16667,42.908,453.8)">
                <path d="M140.54,74.235C139.342,74.235 137.797,73.205 136.773,71.501C136.123,70.424 135.803,69.288 135.803,68.331C135.805,67.326 136.148,66.541 136.784,66.16C137.063,65.993 137.378,65.912 137.725,65.912L137.739,65.912C138.927,65.912 140.459,66.922 141.481,68.602L141.508,68.647C142.157,69.721 142.476,70.856 142.475,71.814C142.474,72.819 142.13,73.606 141.498,73.985C141.217,74.154 140.901,74.235 140.554,74.235L140.54,74.235M140.208,70.983C139.842,70.983 139.536,71.3 139.52,71.703C139.504,72.112 139.802,72.454 140.177,72.469L140.201,72.469C140.569,72.469 140.872,72.151 140.887,71.749C140.903,71.34 140.611,70.996 140.233,70.984C140.225,70.984 140.216,70.983 140.208,70.983" style="fill:white;fill-rule:nonzero;"/>
            </g>
            <g transform="matrix(4.16667,0,0,4.16667,42.908,453.8)">
                <path d="M140.556,74.667L140.554,74.667C139.759,74.662 138.907,74.312 138.12,73.695C137.484,73.198 136.891,72.527 136.404,71.724C135.718,70.586 135.372,69.383 135.372,68.331C135.371,67.236 135.752,66.28 136.561,65.791C136.912,65.579 137.31,65.48 137.723,65.48L137.725,65.48C139.161,65.488 140.788,66.623 141.877,68.424C141.881,68.429 141.884,68.435 141.887,68.44L141.908,68.475L141.908,68.476C142.573,69.596 142.906,70.778 142.907,71.814C142.907,72.064 142.887,72.307 142.847,72.539C142.711,73.322 142.343,73.978 141.72,74.355C141.369,74.567 140.97,74.667 140.556,74.667M137.739,65.912L137.725,65.912C137.378,65.912 137.063,65.993 136.784,66.16C136.148,66.541 135.805,67.326 135.803,68.331C135.803,69.288 136.123,70.424 136.773,71.501C137.797,73.205 139.342,74.235 140.54,74.235L140.554,74.235C140.901,74.235 141.217,74.154 141.498,73.985C142.13,73.606 142.474,72.819 142.475,71.814C142.476,70.856 142.157,69.721 141.508,68.647L141.481,68.602C140.459,66.922 138.927,65.912 137.739,65.912" style="fill:rgb(93,69,57);fill-rule:nonzero;"/>
            </g>
            <g transform="matrix(4.16667,0,0,4.16667,42.908,477.188)">
                <path d="M127.663,68.009C127.655,68.009 127.647,68.009 127.638,68.008C127.26,67.996 126.967,67.65 126.984,67.24C126.998,66.84 127.302,66.525 127.668,66.525C127.676,66.525 127.684,66.525 127.693,66.526C128.07,66.537 128.361,66.881 128.347,67.289C128.336,67.694 128.031,68.009 127.663,68.009" style="fill:rgb(65,60,60);fill-rule:nonzero;"/>
            </g>
            <g transform="matrix(4.16667,0,0,4.16667,42.908,467.571)">
                <path d="M140.201,69.164L140.177,69.164C139.802,69.149 139.504,68.807 139.52,68.398C139.536,67.995 139.842,67.678 140.208,67.678C140.216,67.678 140.225,67.679 140.233,67.679C140.611,67.691 140.903,68.035 140.887,68.444C140.872,68.846 140.569,69.164 140.201,69.164" style="fill:rgb(65,60,60);fill-rule:nonzero;"/>
            </g>
            <g transform="matrix(4.16667,0,0,4.16667,42.908,500.654)">
                <path d="M136.231,65.686C135.91,65.686 135.172,65.368 134.528,64.955C133.878,64.545 133.32,64.025 133.325,63.683L133.324,63.677C133.326,63.49 133.407,63.385 133.553,63.313C133.698,63.242 133.91,63.217 134.148,63.217L134.151,63.217C134.585,63.216 135.107,63.298 135.51,63.312L135.553,63.314C136.005,63.329 136.548,63.316 136.987,63.349C137.444,63.379 137.773,63.478 137.779,63.639L137.781,63.671C137.783,63.887 137.552,64.392 137.242,64.835C136.936,65.281 136.543,65.668 136.265,65.685L136.234,65.686L136.231,65.686" style="fill:rgb(120,100,92);fill-rule:nonzero;"/>
            </g>
            <g transform="matrix(4.16667,0,0,4.16667,42.908,500.659)">
                <path d="M136.234,65.769C135.873,65.767 135.141,65.443 134.483,65.025C134.05,64.746 133.651,64.432 133.427,64.13C133.312,63.975 133.244,63.824 133.24,63.683L133.24,63.676C133.239,63.461 133.349,63.314 133.516,63.236C133.683,63.156 133.905,63.132 134.151,63.132C134.585,63.132 135.096,63.21 135.487,63.226L135.513,63.227C135.969,63.244 136.534,63.23 136.993,63.264C137.264,63.287 137.504,63.32 137.663,63.397C137.772,63.449 137.844,63.522 137.862,63.628L137.865,63.67C137.862,63.93 137.625,64.427 137.311,64.882C136.995,65.333 136.61,65.737 136.271,65.768L136.234,65.769M134.148,63.216C133.91,63.216 133.698,63.241 133.553,63.312C133.407,63.384 133.326,63.489 133.324,63.676L133.325,63.682C133.32,64.024 133.878,64.544 134.528,64.954C135.172,65.367 135.91,65.685 136.231,65.685L136.234,65.685L136.265,65.684C136.543,65.667 136.936,65.28 137.242,64.834C137.552,64.391 137.783,63.886 137.781,63.67L137.779,63.638C137.773,63.477 137.444,63.378 136.987,63.348C136.548,63.315 136.005,63.328 135.553,63.313L135.51,63.311C135.107,63.297 134.585,63.215 134.151,63.216L134.148,63.216" style="fill:rgb(93,69,57);fill-rule:nonzero;"/>
            </g>
            <g transform="matrix(4.16667,0,0,4.16667,42.908,488.746)">
                <path d="M116.841,67.595C116.84,67.595 116.774,67.541 116.641,67.443C116.513,67.349 116.327,67.215 116.089,67.056C116.084,67.053 116.079,67.05 116.075,67.047C116.069,67.043 116.064,67.039 116.058,67.036C116.031,67.017 116.002,66.999 115.973,66.98C115.793,66.861 115.587,66.731 115.357,66.593C114.95,66.349 114.469,66.082 113.929,65.818C112.432,65.091 111.441,64.758 111.045,64.639C110.913,64.599 110.851,64.584 110.851,64.583L110.853,64.578L110.952,64.173L110.954,64.165C110.969,64.168 112.094,64.447 114.117,65.43C114.604,65.667 115.043,65.907 115.425,66.131C115.645,66.261 115.847,66.385 116.028,66.501C116.062,66.523 116.095,66.544 116.127,66.565C116.132,66.568 116.137,66.571 116.143,66.575C116.758,66.975 117.107,67.256 117.111,67.259L116.841,67.595" style="fill:rgb(93,69,57);fill-rule:nonzero;"/>
            </g>
            <g transform="matrix(4.16667,0,0,4.16667,42.908,518.363)">
                <path d="M113.995,62.661C113.009,62.66 111.124,62.419 111.119,62.419L111.173,61.991C111.174,61.991 111.643,62.051 112.233,62.111C112.821,62.17 113.53,62.23 113.993,62.23L113.995,62.23L114.085,62.229C114.137,62.228 114.193,62.226 114.252,62.224C114.586,62.212 115.003,62.185 115.401,62.155C115.634,62.138 115.86,62.119 116.061,62.102C116.097,62.099 116.133,62.096 116.167,62.093L116.171,62.093C116.536,62.061 116.79,62.037 116.791,62.037L116.833,62.466C116.832,62.466 116.598,62.489 116.256,62.518C116.221,62.522 116.185,62.525 116.148,62.528C115.949,62.545 115.721,62.564 115.484,62.582C114.998,62.619 114.475,62.652 114.094,62.66L113.995,62.661" style="fill:rgb(93,69,57);fill-rule:nonzero;"/>
            </g>
            <g transform="matrix(4.16667,0,0,4.16667,42.908,629.3)">
                <path d="M119.675,54.736C119.093,54.735 118.574,54.561 118.114,54.276C118.348,54.124 118.449,54.042 118.45,54.041L118.397,53.976C118.397,53.976 118.29,54.063 118.036,54.226C117.388,53.8 116.859,53.151 116.437,52.457C116.349,52.313 116.265,52.166 116.186,52.018C116.248,52.031 116.31,52.043 116.371,52.055L116.387,51.972C116.304,51.957 116.219,51.939 116.134,51.92C115.576,50.854 115.232,49.742 115.067,49.075C115.015,48.86 114.99,48.66 114.99,48.473C114.986,47.744 115.386,47.247 115.867,46.882C116.35,46.511 116.927,46.226 117.39,45.867C118.187,45.251 118.873,44.617 119.579,44.127C120.282,43.639 121.017,43.291 121.885,43.291L121.887,43.291C122.191,43.291 122.509,43.333 122.844,43.424C123.015,43.47 123.19,43.528 123.37,43.6C123.651,43.709 123.885,43.837 124.075,43.98C124.092,43.993 124.109,44.006 124.126,44.019C124.518,44.332 124.704,44.711 124.701,45.112C124.697,45.651 124.397,46.158 124.016,46.609C123.632,47.059 123.154,47.453 122.743,47.736C121.858,48.343 120.901,49.018 120.436,49.347C120.688,49.615 120.978,49.921 121.26,50.25C121.882,50.983 122.483,51.815 122.492,52.671C122.496,53.146 122.285,53.597 121.825,53.971C121.729,53.888 121.678,53.845 121.677,53.845L121.609,53.927C121.609,53.927 121.654,53.965 121.739,54.038C121.536,54.19 121.289,54.328 120.997,54.449C120.534,54.645 120.092,54.736 119.675,54.736M121.887,43.722C121.137,43.723 120.496,44.017 119.824,44.482C119.155,44.946 118.468,45.577 117.654,46.208C117.144,46.601 116.563,46.888 116.131,47.223C115.697,47.564 115.425,47.909 115.421,48.473C115.421,48.621 115.441,48.787 115.486,48.972C115.67,49.72 116.102,51.08 116.805,52.233C117.51,53.39 118.462,54.305 119.666,54.305L119.675,54.305C120.028,54.305 120.411,54.229 120.829,54.052C121.785,53.636 122.054,53.172 122.06,52.671C122.064,52.195 121.776,51.624 121.367,51.073C120.96,50.521 120.446,49.99 120.039,49.553C119.766,49.26 119.543,49.017 119.416,48.804L119.787,48.585C119.847,48.687 119.974,48.842 120.141,49.027C120.587,48.712 121.581,48.01 122.499,47.38C122.883,47.117 123.338,46.739 123.687,46.329C124.039,45.919 124.273,45.476 124.269,45.112C124.265,44.723 124.042,44.342 123.21,44.001C122.718,43.805 122.285,43.722 121.887,43.722" style="fill:rgb(93,69,57);fill-rule:nonzero;"/>
            </g>
            <g transform="matrix(4.16667,0,0,4.16667,42.908,633.709)">
                <path d="M135.611,52.551C134.906,52.551 134.173,52.243 133.352,51.361C132.102,50.018 131.451,49.626 131.211,49.516L131.1,49.475L131.112,49.409C131.115,49.403 131.117,49.398 131.12,49.393C131.184,49.408 131.81,49.582 133.414,51.303C134.226,52.176 134.933,52.467 135.613,52.467L135.614,52.467C136.322,52.467 137.008,52.146 137.746,51.81C138.91,51.282 141.641,49.749 141.629,48.235C141.629,47.874 141.479,47.511 141.113,47.151C140.579,46.629 140.113,46.438 139.68,46.438L139.671,46.438C138.549,46.438 137.597,47.761 136.318,48.174C136.095,48.245 135.887,48.278 135.693,48.278C134.338,48.272 133.711,46.715 132.968,45.923C132.545,45.467 132.105,45.108 131.771,44.864C131.437,44.62 131.211,44.492 131.211,44.491L131.252,44.418C131.253,44.418 131.269,44.428 131.299,44.446C131.496,44.565 132.286,45.064 133.03,45.866C133.785,46.684 134.411,48.194 135.685,48.194L135.693,48.194C135.877,48.194 136.076,48.163 136.293,48.094C137.542,47.7 138.489,46.36 139.68,46.354C140.139,46.354 140.629,46.559 141.172,47.091C141.55,47.462 141.714,47.85 141.714,48.235C141.702,49.842 138.949,51.346 137.781,51.886C137.043,52.222 136.347,52.551 135.613,52.551L135.611,52.551" style="fill:rgb(93,69,57);fill-rule:nonzero;"/>
            </g>
            <g transform="matrix(4.16667,0,0,4.16667,42.908,649.554)">
                <path d="M128.339,49.094L128.317,49.063L128.277,49.007C128.489,48.856 128.705,48.668 128.931,48.438C129.144,48.223 129.366,47.971 129.603,47.678C129.82,47.409 130.051,47.106 130.298,46.766C130.393,46.634 130.49,46.485 130.587,46.327C130.745,46.066 130.902,45.779 131.047,45.5C131.122,45.354 131.194,45.21 131.261,45.073C131.534,44.515 131.722,44.073 131.722,44.072L131.723,44.072L131.821,44.114C131.82,44.115 131.516,44.829 131.12,45.59C131.117,45.595 131.115,45.6 131.112,45.606C130.886,46.04 130.63,46.489 130.385,46.828C129.577,47.94 128.95,48.658 128.339,49.094" style="fill:rgb(93,69,57);fill-rule:nonzero;"/>
            </g>
            <g transform="matrix(4.16667,0,0,4.16667,42.908,708.529)">
                <path d="M139.541,45.947C136.675,45.947 132.529,45.316 132.527,45.315L132.512,45.313L132.501,45.303C132.5,45.302 129.042,42.297 126.745,39.855C125.758,38.806 124.826,37.88 124.034,37.122L123.989,37.052C123.988,37.052 123.983,37.056 123.972,37.063C123.669,36.773 123.386,36.508 123.13,36.272C122.454,35.646 121.961,35.214 121.739,35.023C121.654,34.95 121.609,34.912 121.609,34.912L121.677,34.83C121.678,34.83 121.729,34.873 121.825,34.956C122.381,35.436 124.441,37.251 126.822,39.782C127.968,40.999 129.406,42.36 130.556,43.416C131.63,44.401 132.452,45.119 132.559,45.212C132.691,45.232 133.676,45.379 134.972,45.525C136.365,45.683 138.115,45.841 139.541,45.84L139.544,45.84C140.254,45.84 140.884,45.801 141.345,45.704C141.81,45.609 142.092,45.448 142.132,45.253C142.202,44.953 142.235,44.677 142.235,44.424C142.233,43.192 141.468,42.479 140.418,42.059C139.371,41.642 138.05,41.534 136.977,41.534L136.971,41.534C135.863,41.534 135.025,41.648 135.023,41.648L134.998,41.651L134.98,41.634C134.98,41.634 132.781,39.613 131.765,38.654C130.57,37.525 128.355,35.167 127.204,33.932C126.755,33.449 126.468,33.137 126.467,33.137L126.546,33.065C126.547,33.066 127.072,33.636 127.814,34.429C127.965,34.59 128.125,34.761 128.292,34.938C128.383,35.035 128.476,35.133 128.571,35.234C129.687,36.416 131.01,37.794 131.838,38.577C132.8,39.484 134.82,41.343 135.034,41.539C135.181,41.52 135.967,41.427 136.973,41.427C138.053,41.428 139.387,41.534 140.458,41.96C141.528,42.383 142.343,43.141 142.342,44.424C142.342,44.686 142.308,44.97 142.236,45.278C142.166,45.554 141.839,45.708 141.367,45.809C140.892,45.908 140.257,45.947 139.541,45.947" style="fill:rgb(93,69,57);fill-rule:nonzero;"/>
            </g>
            <g transform="matrix(4.16667,0,0,4.16667,42.908,715.859)">
                <path d="M114.759,44.051C113.634,44.048 112.302,42.89 111.239,41.44C110.178,39.987 109.39,38.239 109.389,37.025C109.388,36.461 109.562,36.005 109.968,35.761C110.387,35.509 110.795,35.422 111.156,35.422C111.879,35.422 112.413,35.768 112.514,35.838C112.658,35.798 113.605,35.534 114.572,35.173C114.885,35.056 115.202,34.928 115.493,34.795C115.616,34.738 115.735,34.683 115.849,34.629C116.097,34.512 116.323,34.401 116.53,34.297L116.591,34.297L116.592,34.265C116.924,34.096 117.203,33.945 117.435,33.813C117.554,33.746 117.661,33.683 117.756,33.626C117.864,33.561 117.957,33.503 118.036,33.452C118.29,33.289 118.397,33.202 118.397,33.202L118.45,33.267C118.449,33.268 118.348,33.35 118.114,33.502C117.708,33.765 116.902,34.241 115.528,34.872C114.252,35.455 112.518,35.924 112.517,35.924L112.497,35.93L112.481,35.917C112.48,35.917 112.344,35.815 112.109,35.712C111.874,35.609 111.542,35.506 111.156,35.506C110.809,35.506 110.418,35.589 110.011,35.833C109.639,36.057 109.474,36.476 109.473,37.025C109.472,38.205 110.252,39.949 111.307,41.39C112.359,42.831 113.688,43.967 114.754,43.967L114.759,43.967C114.888,43.967 115.014,43.951 115.135,43.917C116.346,43.571 116.723,42.935 116.726,42.225C116.728,41.217 115.934,40.052 115.533,39.44C115.479,39.356 115.433,39.285 115.396,39.224C115.424,39.218 115.454,39.211 115.482,39.205C115.516,39.26 115.557,39.324 115.604,39.394C115.737,39.598 115.915,39.864 116.093,40.167C116.45,40.773 116.809,41.524 116.81,42.225C116.813,42.97 116.391,43.652 115.158,43.998C115.029,44.034 114.895,44.051 114.759,44.051M115.352,39.148C115.323,39.095 115.306,39.052 115.304,39.016L115.304,39.012L115.388,39.016C115.386,39.027 115.404,39.068 115.438,39.129C115.409,39.135 115.381,39.142 115.352,39.148" style="fill:rgb(93,69,57);fill-rule:nonzero;"/>
            </g>
            <g transform="matrix(4.16667,0,0,4.16667,42.908,705.117)">
                <path d="M114.585,41.96L114.572,41.877C114.829,41.836 115.09,41.785 115.352,41.726C115.381,41.72 115.409,41.713 115.438,41.707C117.337,41.268 119.318,40.41 120.893,39.616C122.593,38.76 123.818,37.981 123.972,37.882C123.983,37.875 123.988,37.871 123.989,37.871L124.034,37.941L124.034,37.942C124.032,37.943 119.589,40.827 115.482,41.783C115.454,41.789 115.424,41.796 115.396,41.802C115.123,41.864 114.853,41.917 114.585,41.96" style="fill:rgb(93,69,57);fill-rule:nonzero;"/>
            </g>
            <g transform="matrix(4.16667,0,0,4.16667,42.908,635.221)">
                <path d="M116.591,53.65L116.53,53.65C115.012,53.634 113.146,53.556 111.13,52.801C110,52.38 109.092,51.805 108.375,51.143C107.644,50.466 107.112,49.699 106.748,48.912C106.3,47.945 106.106,46.949 106.106,46.057C106.107,44.643 106.589,43.483 107.346,43.105C107.551,43.004 107.745,42.956 107.93,42.956C108.737,42.961 109.325,43.845 110.014,44.993C110.702,46.143 111.488,47.572 112.649,48.696C113.725,49.733 115.006,50.25 116.134,50.499C116.219,50.518 116.304,50.536 116.387,50.551L116.371,50.634C116.31,50.622 116.248,50.61 116.186,50.597C115.03,50.351 113.703,49.829 112.591,48.757C111.418,47.62 110.629,46.185 109.942,45.036C109.257,43.888 108.668,43.04 107.937,43.04L107.93,43.04C107.759,43.04 107.579,43.084 107.383,43.18C107.24,43.251 107.106,43.353 106.983,43.483C106.498,43.997 106.189,44.943 106.19,46.057C106.191,47.662 106.826,49.608 108.455,51.101C109.16,51.748 110.052,52.309 111.159,52.722C113.188,53.482 115.065,53.552 116.592,53.566L116.592,53.618L116.591,53.65" style="fill:rgb(93,69,57);fill-rule:nonzero;"/>
            </g>
            <g transform="matrix(4.16667,0,0,4.16667,42.908,497.979)">
                <path d="M146.291,65.871L146.237,65.443C146.238,65.442 146.764,65.377 147.437,65.268C147.442,65.267 147.447,65.267 147.451,65.266C147.468,65.263 147.485,65.26 147.503,65.258C147.524,65.254 147.546,65.251 147.568,65.247C147.805,65.208 148.057,65.164 148.307,65.116C148.786,65.025 149.26,64.92 149.615,64.81C150.597,64.506 151.358,64.014 151.671,63.79C151.775,63.715 151.827,63.673 151.827,63.673L151.832,63.679L152.094,64.001L152.099,64.008C152.086,64.018 151.138,64.789 149.742,65.222C149.4,65.328 148.971,65.426 148.533,65.512C148.292,65.56 148.048,65.604 147.814,65.643C147.777,65.65 147.74,65.656 147.703,65.662L147.701,65.662C146.928,65.791 146.294,65.87 146.291,65.871" style="fill:rgb(93,69,57);fill-rule:nonzero;"/>
            </g>
            <g transform="matrix(4.16667,0,0,4.16667,42.908,533.813)">
                <path d="M151.074,61.141C150.687,61.141 149.969,61.12 149.06,60.998C148.958,60.984 148.856,60.967 148.756,60.95C148.514,60.907 148.279,60.854 148.054,60.796C148.05,60.795 148.046,60.794 148.043,60.793C148.04,60.793 148.037,60.792 148.034,60.791C147.999,60.782 147.965,60.773 147.93,60.764C147.007,60.516 146.307,60.201 146.297,60.197L146.474,59.803C146.474,59.803 146.552,59.838 146.695,59.896C146.837,59.953 147.042,60.032 147.29,60.117C147.513,60.193 147.772,60.275 148.05,60.349C148.084,60.358 148.119,60.367 148.153,60.376C148.156,60.377 148.16,60.378 148.163,60.379C148.166,60.38 148.169,60.38 148.172,60.381C148.397,60.439 148.633,60.491 148.871,60.532C148.954,60.546 149.036,60.559 149.119,60.57L149.118,60.57C150.004,60.69 150.702,60.71 151.074,60.71C151.268,60.71 151.37,60.705 151.37,60.705L151.392,61.135C151.389,61.136 151.276,61.141 151.074,61.141M146.297,60.197L146.298,60.197L146.298,60.196L146.297,60.196L146.297,60.197Z" style="fill:rgb(93,69,57);fill-rule:nonzero;"/>
            </g>
            <g transform="matrix(4.16667,0,0,4.16667,42.908,547.579)">
                <path d="M134.287,62.529C133.702,62.529 133.1,62.445 132.492,62.251C130.902,61.746 129.856,61.06 129.207,60.263C128.558,59.466 128.319,58.565 128.32,57.678C128.321,56.863 128.516,56.055 128.769,55.314L128.838,55.111L129.042,55.179C129.044,55.18 130.303,55.601 131.801,56.084C133.299,56.567 135.037,57.112 135.973,57.351C136.908,57.589 138.236,57.845 139.327,58.04C140.419,58.235 141.272,58.37 141.274,58.371L141.651,58.43L141.405,58.722C141.386,58.732 138.252,62.513 134.287,62.529M129.11,55.656C128.901,56.312 128.752,57.003 128.752,57.678C128.753,58.491 128.962,59.277 129.542,59.991C130.122,60.704 131.086,61.352 132.622,61.84C133.187,62.02 133.744,62.098 134.287,62.098L134.307,62.098C137.34,62.098 139.998,59.601 140.815,58.733C139.861,58.576 137.385,58.155 135.866,57.769C134.182,57.338 130.075,55.978 129.11,55.656" style="fill:rgb(93,69,57);fill-rule:nonzero;"/>
            </g>
        </g>
        <g id="Richtung">
            <g transform="matrix(2.48492,0,0,2.48492,259.462,653.568)">
                <rect x="128.767" y="57.131" width="51.045" height="1" style="fill:rgb(0,174,239);"/>
            </g>
            <g transform="matrix(-3.85712,1.57599,1.57599,3.85712,1321.3,289.315)">
                <path d="M177.797,59.136L186.394,59.136L183.416,56.84L183.934,53.115L177.797,59.136" style="fill:rgb(0,174,239);fill-rule:nonzero;"/>
            </g>
        </g>
        <g id="Drehpunkt">
            <g transform="matrix(4.16667,0,0,4.16667,42.908,557.488)">
                <path d="M128.768,63.8C127.12,63.8 125.57,63.158 124.405,61.993C123.24,60.828 122.598,59.28 122.598,57.631C122.598,55.983 123.24,54.434 124.405,53.269C125.57,52.104 127.12,51.462 128.768,51.462C130.415,51.462 131.964,52.104 133.13,53.269C135.535,55.674 135.535,59.588 133.13,61.993C131.964,63.158 130.415,63.8 128.768,63.8" style="fill:rgb(236,0,140);fill-rule:nonzero;"/>
            </g>
            <g transform="matrix(4.16667,0,0,4.16667,42.908,557.488)">
                <path d="M128.767,50.962C126.986,50.962 125.311,51.655 124.052,52.915C122.792,54.175 122.098,55.849 122.098,57.631C122.098,59.412 122.792,61.087 124.052,62.347C125.311,63.606 126.986,64.3 128.767,64.3C130.549,64.3 132.224,63.606 133.483,62.347C134.743,61.087 135.437,59.412 135.437,57.631C135.437,55.849 134.743,54.175 133.483,52.915C132.224,51.655 130.549,50.962 128.767,50.962ZM128.767,51.962C130.218,51.962 131.669,52.515 132.776,53.622C134.99,55.836 134.99,59.426 132.776,61.64C131.669,62.747 130.218,63.3 128.767,63.3C127.317,63.3 125.866,62.747 124.759,61.64C122.545,59.426 122.545,55.836 124.759,53.622C125.866,52.515 127.317,51.962 128.767,51.962" style="fill:rgb(236,0,140);fill-rule:nonzero;"/>
            </g>
            <g transform="matrix(4.16667,0,0,4.16667,42.908,557.488)">
                <path d="M132.776,53.622L128.768,57.631L132.776,61.64C130.562,63.854 126.973,63.854 124.759,61.64L128.768,57.631L124.759,53.622C126.973,51.408 130.562,51.408 132.776,53.622" style="fill:white;fill-rule:nonzero;"/>
            </g>
        </g>
        <g transform="matrix(3.18634,0,0,3.18634,250.262,139.009)">
            <text x="211.515px" y="125.163px" style="font-family:'Verdana', sans-serif;font-size:12px;fill:rgb(35,31,32);">(</text>
            <text x="216.965px" y="125.163px" style="font-family:'Verdana', sans-serif;font-size:12px;fill:rgb(237,28,36);">0</text>
            <text x="224.594px" y="125.163px" style="font-family:'Verdana', sans-serif;font-size:12px;fill:rgb(35,31,32);">,</text>
            <text x="228.96px" y="125.163px" style="font-family:'Verdana', sans-serif;font-size:12px;fill:rgb(12,147,68);">0</text>
            <text x="236.589px" y="125.163px" style="font-family:'Verdana', sans-serif;font-size:12px;fill:rgb(35,31,32);">)</text>
        </g>
        <g transform="matrix(3.18634,0,0,3.18634,250.262,252.583)">
            <text x="211.516px" y="241.017px" style="font-family:'Verdana', sans-serif;font-size:12px;fill:rgb(35,31,32);">(</text>
            <text x="216.965px" y="241.017px" style="font-family:'Verdana', sans-serif;font-size:12px;fill:rgb(237,28,36);">0</text>
            <text x="224.594px" y="241.017px" style="font-family:'Verdana', sans-serif;font-size:12px;fill:rgb(35,31,32);">,</text>
            <text x="228.96px" y="241.017px" style="font-family:'Verdana', sans-serif;font-size:12px;fill:rgb(12,147,68);">-180</text>
            <text x="257.296px" y="241.017px" style="font-family:'Verdana', sans-serif;font-size:12px;fill:rgb(35,31,32);">)</text>
        </g>
        <g transform="matrix(3.18634,0,0,3.18634,250.262,-707.59)">
            <text x="211.516px" y="241.017px" style="font-family:'Verdana', sans-serif;font-size:12px;fill:rgb(35,31,32);">(</text>
            <text x="216.965px" y="241.017px" style="font-family:'Verdana', sans-serif;font-size:12px;fill:rgb(237,28,36);">0</text>
            <text x="224.594px" y="241.017px" style="font-family:'Verdana', sans-serif;font-size:12px;fill:rgb(35,31,32);">,</text>
            <text x="228.96px" y="241.017px" style="font-family:'Verdana', sans-serif;font-size:12px;fill:rgb(12,147,68);">180</text>
            <text x="251.847px" y="241.017px" style="font-family:'Verdana', sans-serif;font-size:12px;fill:rgb(35,31,32);">)</text>
        </g>
        <g transform="matrix(3.18634,0,0,3.18634,-57.1724,252.583)">
            <text x="24.795px" y="241.017px" style="font-family:'Verdana', sans-serif;font-size:12px;fill:rgb(35,31,32);">(</text>
            <text x="30.244px" y="241.017px" style="font-family:'Verdana', sans-serif;font-size:12px;fill:rgb(237,28,36);">-240</text>
            <text x="58.58px" y="241.017px" style="font-family:'Verdana', sans-serif;font-size:12px;fill:rgb(35,31,32);">,</text>
            <text x="62.945px" y="241.017px" style="font-family:'Verdana', sans-serif;font-size:12px;fill:rgb(12,147,68);">-180</text>
            <text x="91.281px" y="241.017px" style="font-family:'Verdana', sans-serif;font-size:12px;fill:rgb(35,31,32);">)</text>
        </g>
        <g transform="matrix(3.18634,0,0,3.18634,-2.28059,139.009)">
            <text x="28.275px" y="125.163px" style="font-family:'Verdana', sans-serif;font-size:12px;fill:rgb(35,31,32);">(</text>
            <text x="33.724px" y="125.163px" style="font-family:'Verdana', sans-serif;font-size:12px;fill:rgb(237,28,36);">-240</text>
            <text x="62.06px" y="125.163px" style="font-family:'Verdana', sans-serif;font-size:12px;fill:rgb(35,31,32);">,</text>
            <text x="66.425px" y="125.163px" style="font-family:'Verdana', sans-serif;font-size:12px;fill:rgb(12,147,68);">0</text>
            <text x="74.054px" y="125.163px" style="font-family:'Verdana', sans-serif;font-size:12px;fill:rgb(35,31,32);">)</text>
        </g>
        <g transform="matrix(3.18634,0,0,3.18634,-189.157,-338.933)">
            <text x="71.667px" y="125.163px" style="font-family:'Verdana', sans-serif;font-size:12px;fill:rgb(35,31,32);">(</text>
            <text x="77.116px" y="125.163px" style="font-family:'Verdana', sans-serif;font-size:12px;fill:rgb(237,28,36);">-240</text>
            <text x="105.452px" y="125.163px" style="font-family:'Verdana', sans-serif;font-size:12px;fill:rgb(35,31,32);">,</text>
            <text x="109.817px" y="125.163px" style="font-family:'Verdana', sans-serif;font-size:12px;fill:rgb(12,147,68);">180</text>
            <text x="132.703px" y="125.163px" style="font-family:'Verdana', sans-serif;font-size:12px;fill:rgb(35,31,32);">)</text>
        </g>
        <g transform="matrix(3.18634,0,0,3.18634,406.427,139.009)">
            <text x="363.014px" y="125.163px" style="font-family:'Verdana', sans-serif;font-size:12px;fill:rgb(35,31,32);">(</text>
            <text x="368.463px" y="125.163px" style="font-family:'Verdana', sans-serif;font-size:12px;fill:rgb(237,28,36);">240</text>
            <text x="391.35px" y="125.163px" style="font-family:'Verdana', sans-serif;font-size:12px;fill:rgb(35,31,32);">,</text>
            <text x="395.716px" y="125.163px" style="font-family:'Verdana', sans-serif;font-size:12px;fill:rgb(12,147,68);">0</text>
            <text x="403.345px" y="125.163px" style="font-family:'Verdana', sans-serif;font-size:12px;fill:rgb(35,31,32);">)</text>
        </g>
        <g transform="matrix(3.18634,0,0,3.18634,406.427,-338.866)">
            <text x="363.014px" y="125.163px" style="font-family:'Verdana', sans-serif;font-size:12px;fill:rgb(35,31,32);">(</text>
            <text x="368.463px" y="125.163px" style="font-family:'Verdana', sans-serif;font-size:12px;fill:rgb(237,28,36);">240</text>
            <text x="391.35px" y="125.163px" style="font-family:'Verdana', sans-serif;font-size:12px;fill:rgb(35,31,32);">,</text>
            <text x="395.716px" y="125.163px" style="font-family:'Verdana', sans-serif;font-size:12px;fill:rgb(12,147,68);">180</text>
            <text x="418.603px" y="125.163px" style="font-family:'Verdana', sans-serif;font-size:12px;fill:rgb(35,31,32);">)</text>
        </g>
        <g transform="matrix(3.18634,0,0,3.18634,406.427,252.583)">
            <text x="363.014px" y="241.017px" style="font-family:'Verdana', sans-serif;font-size:12px;fill:rgb(35,31,32);">(</text>
            <text x="368.463px" y="241.017px" style="font-family:'Verdana', sans-serif;font-size:12px;fill:rgb(237,28,36);">240</text>
            <text x="391.35px" y="241.017px" style="font-family:'Verdana', sans-serif;font-size:12px;fill:rgb(35,31,32);">,</text>
            <text x="395.715px" y="241.017px" style="font-family:'Verdana', sans-serif;font-size:12px;fill:rgb(12,147,68);">-180</text>
            <text x="424.052px" y="241.017px" style="font-family:'Verdana', sans-serif;font-size:12px;fill:rgb(35,31,32);">)</text>
        </g>
        <g transform="matrix(3.18634,0,0,3.18634,353.463,134.831)">
            <text x="316.788px" y="120.902px" style="font-family:'Verdana', sans-serif;font-size:12px;fill:rgb(237,28,36);">x<tspan x="323.596px 328.753px 336.956px " y="120.902px 120.902px 120.902px ">-Ac</tspan>hse</text>
        </g>
        <g transform="matrix(3.18634,0,0,3.18634,253.512,40.3709)">
            <text x="214.831px" y="24.546px" style="font-family:'Verdana', sans-serif;font-size:12px;fill:rgb(12,147,68);">y<tspan x="221.698px 226.855px 235.058px " y="24.546px 24.546px 24.546px ">-Ac</tspan>hse</text>
        </g>
        <g transform="matrix(3.18634,0,0,3.18634,110.172,191.255)">
            <text x="68.614px" y="178.458px" style="font-family:'Verdana', sans-serif;font-size:12px;fill:rgb(236,0,140);">Drehpunkt</text>
        </g>
        <g transform="matrix(3.18634,0,0,3.18634,142.305,212.602)">
            <text x="160.614px" y="200.234px" style="font-family:'Verdana', sans-serif;font-size:12px;fill:rgb(0,174,239);">Richtung</text>
        </g>
    </g>
</svg>
