<?xml version="1.0" encoding="UTF-8" standalone="no"?>
<!DOCTYPE svg PUBLIC "-//W3C//DTD SVG 1.1//EN" "http://www.w3.org/Graphics/SVG/1.1/DTD/svg11.dtd">
<svg width="100%" height="100%" viewBox="0 0 671 592" version="1.1" xmlns="http://www.w3.org/2000/svg" xmlns:xlink="http://www.w3.org/1999/xlink" xml:space="preserve" xmlns:serif="http://www.serif.com/" style="fill-rule:evenodd;clip-rule:evenodd;stroke-linejoin:round;stroke-miterlimit:2;">
    <g transform="matrix(4.16667,0,0,4.16667,0,0)">
        <rect x="0" y="0" width="161" height="142" style="fill:white;"/>
    </g>
    <g id="Ticks">
        <g transform="matrix(4.16667,0,0,4.16667,0,-2.00679)">
            <rect x="20.76" y="70.826" width="122.328" height="0.83" style="fill:rgb(34,30,31);"/>
        </g>
        <g transform="matrix(4.16667,0,0,4.16667,0,-2.0035)">
            <rect x="81.508" y="10.039" width="0.83" height="122.403" style="fill:rgb(34,30,31);"/>
        </g>
        <g transform="matrix(-2.94535,-2.9472,-2.9472,2.94535,792.164,327.509)">
            <path d="M20.741,70.676L143.107,70.676L143.106,71.506L20.741,71.506L20.741,70.676" style="fill:rgb(34,30,31);fill-rule:nonzero;"/>
        </g>
        <g transform="matrix(-2.94537,2.94719,2.94719,2.94537,372.685,-156.442)">
            <path d="M20.741,70.825L143.106,70.825L143.106,71.655L20.741,71.655L20.741,70.825" style="fill:rgb(34,30,31);fill-rule:nonzero;"/>
        </g>
        <g transform="matrix(4.16667,0,0,4.16667,0,-2.00333)">
            <path d="M140.736,71.24L140.321,71.24C140.32,87.377 133.784,101.983 123.217,112.559C112.648,123.133 98.051,129.673 81.923,129.673C65.797,129.673 51.2,123.133 40.631,112.559C30.063,101.983 23.528,87.377 23.527,71.24C23.528,55.103 30.063,40.497 40.631,29.922C51.2,19.348 65.797,12.808 81.923,12.807C98.051,12.808 112.648,19.348 123.217,29.922C133.784,40.497 140.32,55.103 140.321,71.24L141.151,71.24C141.15,38.51 114.634,11.978 81.923,11.977C49.214,11.978 22.698,38.51 22.697,71.24C22.698,103.971 49.214,130.503 81.923,130.504C114.634,130.503 141.15,103.971 141.151,71.24L140.736,71.24" style="fill:rgb(34,30,31);fill-rule:nonzero;"/>
        </g>
    </g>
    <g id="Kreis" transform="matrix(0,-4.16667,-4.16667,0,640.038,634.914)">
        <path d="M81.995,15.156C50.794,15.156 25.5,40.434 25.5,71.615C25.5,102.796 50.794,128.074 81.995,128.074C113.195,128.074 138.488,102.796 138.488,71.615C138.488,40.434 113.195,15.156 81.995,15.156" style="fill:white;fill-rule:nonzero;"/>
    </g>
    <g id="Scratch" opacity="0.5">
        <g transform="matrix(-1.15127,-4.00446,-4.00446,1.15127,554.301,421.522)">
            <path d="M50.826,70.506L51.457,70.506C51.457,70.506 51.457,70.505 51.457,70.505L50.826,70.504C50.827,70.505 50.827,70.505 50.826,70.506" style="fill:white;fill-rule:nonzero;"/>
        </g>
        <g transform="matrix(4.16667,0,0,4.16667,0,33.0849)">
            <path d="M59.28,67.517L60.72,66.542C60.724,66.547 60.729,66.552 60.733,66.557C60.233,66.898 59.708,67.249 59.28,67.517" style="fill:white;fill-rule:nonzero;"/>
        </g>
        <g transform="matrix(-3.89214,-1.4874,-1.4874,3.89214,1003.71,-51.2346)">
            <path d="M105.891,99.379L106.519,99.379C106.52,99.378 106.52,99.378 106.519,99.377L105.892,99.378L105.891,99.379" style="fill:white;fill-rule:nonzero;"/>
        </g>
        <g transform="matrix(4.16667,0,0,4.16667,0,14.6014)">
            <path d="M80.156,111.328C77.325,111.328 73.72,109.651 71.442,107.957C69.379,106.424 68.289,104.835 68.289,103.426C68.289,102.977 68.398,102.547 68.623,102.143C69.71,100.182 71.545,99.835 72.475,99.79C72.746,99.51 73.165,99.065 73.628,98.536C72.374,99.037 70.999,99.471 69.454,99.727C68.618,99.868 67.813,99.934 67.044,99.934C62.217,99.934 58.753,97.352 57.009,94.66C56.907,94.503 56.81,94.348 56.719,94.19C55.968,92.889 55.58,91.568 55.58,90.415C55.58,89.614 55.767,88.893 56.152,88.317C56.576,87.68 57.311,87.005 58.526,87.005C58.824,87.005 59.15,87.045 59.508,87.137C60.561,87.408 61.693,88.042 63.002,88.782C64.609,89.688 66.433,90.708 68.416,91.206C69.123,91.383 69.849,91.471 70.589,91.471C71.06,91.471 71.536,91.436 72.018,91.365C71.057,90.59 70.342,89.879 70.001,89.521C69.717,89.222 69.495,88.927 69.325,88.632C68.992,88.057 68.862,87.492 68.862,86.949C68.862,85.822 69.418,84.786 69.875,83.935C70.091,83.528 70.303,83.14 70.457,82.759L71.098,81.094C71.711,79.438 72.302,77.853 73.401,76.667C70.025,76.432 66.901,75.491 64.107,73.856C62.949,73.18 61.978,72.376 61.164,71.489C61.461,71.286 61.745,71.089 61.993,70.916C62.725,71.694 63.59,72.398 64.612,72.996C67.75,74.831 71.296,75.749 75.066,75.749C75.522,75.749 75.983,75.736 76.445,75.708C74.877,76.129 73.88,77.04 73.183,78.207C72.363,79.566 71.888,81.255 71.157,83.038C70.901,83.664 70.526,84.286 70.206,84.922C69.887,85.557 69.615,86.214 69.613,86.926C69.61,87.611 69.885,88.32 70.54,89.002L70.54,89.002C71.225,89.715 72.428,90.831 73.865,91.779C73.94,91.827 74.014,91.876 74.09,91.924C73.052,92.253 71.857,92.49 70.573,92.49C69.796,92.49 68.988,92.403 68.16,92.198C66.09,91.678 64.218,90.638 62.597,89.726C60.975,88.814 59.609,88.025 58.515,88.022L58.509,88.022C57.905,88.022 57.384,88.278 56.983,88.882C56.714,89.288 56.585,89.813 56.585,90.408C56.587,92.365 57.982,95.109 60.594,96.949C61.79,97.937 62.891,98.519 63.996,98.666C64.074,98.677 64.141,98.682 64.198,98.682C64.296,98.682 64.367,98.667 64.412,98.639C65.221,98.822 66.086,98.923 67.008,98.923C67.73,98.923 68.486,98.862 69.274,98.728C72.487,98.193 74.99,96.883 76.99,95.754C76.799,96.048 76.586,96.365 76.351,96.705L75.077,98.276L75.088,98.385C74.71,98.844 74.325,99.283 73.984,99.658C73.43,100.269 72.994,100.714 72.896,100.814C72.856,100.811 72.779,100.806 72.674,100.806L72.67,100.806C72.048,100.806 70.424,100.979 69.501,102.64C69.363,102.89 69.298,103.158 69.298,103.437C69.306,104.882 71.012,106.579 73.211,107.939C75.414,109.296 78.119,110.304 80.162,110.306C81.148,110.306 81.986,110.07 82.532,109.509C83.364,108.653 83.701,107.868 83.701,107.159C83.698,105.847 82.562,104.842 81.425,104.118C80.854,103.755 80.278,103.463 79.836,103.24C79.636,103.139 79.463,103.053 79.331,102.981C83.988,98.62 87.627,91.477 87.63,91.474L87.628,91.473C89.239,91.867 91.16,92.376 93.247,93.004C98.104,94.466 104.907,95.789 104.908,95.789L104.931,95.794L104.953,95.785C104.955,95.784 108.122,94.546 111.291,93.032C112.876,92.276 114.461,91.45 115.654,90.674C116.25,90.285 116.748,89.91 117.101,89.559C117.452,89.206 117.667,88.879 117.669,88.565L117.644,88.388C116.963,86.118 115.461,85.312 113.761,85.312L113.745,85.312C110.217,85.317 105.79,88.629 105.38,88.938C105.179,88.893 104.171,88.667 102.955,88.392C101.596,88.085 99.98,87.716 98.953,87.473C97.277,87.074 94.5,86.269 92.144,85.564C91.944,85.504 91.748,85.445 91.555,85.387L91.565,85.33L91.618,85.354C92.089,84.32 92.367,82.905 92.584,80.835C92.621,80.481 92.636,80.08 92.636,79.664C92.636,79.341 92.626,79.008 92.612,78.683L92.647,78.778L92.665,78.773C92.708,78.763 92.832,78.738 93.076,78.738C93.63,78.738 94.797,78.863 97.024,79.546C97.776,79.777 98.425,79.88 98.995,79.88C101.131,79.88 102.125,78.423 103.223,76.883C104.14,75.589 105.934,72.662 105.936,70.479C105.941,69.337 105.425,68.383 104.038,68.03C103.594,67.917 103.201,67.864 102.85,67.864L102.845,67.864C101.438,67.864 100.73,68.725 100.184,69.788C99.636,70.855 99.226,72.137 98.406,73.038C97.793,73.709 97.143,73.943 96.471,73.944L96.465,73.944C95.112,73.944 93.673,72.967 92.446,72.587C90.865,72.099 89.451,72.042 89.104,72.036L89.053,71.912C89.518,71.662 89.983,71.4 90.45,71.126C91.514,70.553 94.197,68.993 96.947,66.483C97.01,66.429 97.072,66.375 97.134,66.322C104.728,59.786 106.177,53.487 105.287,49.36C105.625,49.265 105.974,49.155 106.322,49.029C106.506,49.845 106.601,50.712 106.601,51.609C106.601,52.009 106.582,52.416 106.544,52.826C106.207,56.398 104.277,61.91 96.968,67.874C95.363,69.174 93.7,70.355 92,71.407C92.244,71.471 92.496,71.534 92.752,71.612C93.238,71.759 93.733,71.99 94.213,72.202C95.136,72.619 95.863,72.922 96.469,72.922C96.73,72.922 96.97,72.865 97.193,72.736C97.351,72.645 97.505,72.516 97.656,72.355C98.129,71.83 98.461,71.104 98.804,70.332C99.344,69.14 99.956,67.79 101.292,67.172C101.766,66.952 102.286,66.843 102.861,66.843C103.306,66.843 103.784,66.908 104.301,67.039C105.832,67.436 106.468,68.385 106.734,69.111C106.888,69.534 106.956,69.991 106.956,70.466C106.958,73.148 104.814,76.403 104.054,77.47L103.995,77.559C103.281,78.555 102.548,79.581 101.467,80.231C100.731,80.674 99.912,80.896 98.99,80.896C98.295,80.896 97.542,80.77 96.723,80.519C95.188,80.045 94.22,79.863 93.641,79.795C93.636,80.219 93.616,80.603 93.582,80.933C93.413,82.586 93.203,83.785 92.911,84.743C95.783,85.597 97.898,86.189 99.193,86.498C100.327,86.765 102.442,87.248 105.164,87.856C105.732,87.451 106.835,86.699 108.18,85.991C110.315,84.869 112.178,84.307 113.75,84.307C114.503,84.307 115.188,84.436 115.805,84.694C117.153,85.261 118.1,86.407 118.607,88.098C118.657,88.263 118.683,88.429 118.683,88.593C118.682,89.835 117.225,91.093 113.786,92.902C110.103,94.838 105.509,96.636 105.314,96.716L105.025,96.83L104.719,96.769C104.439,96.716 97.806,95.423 92.954,93.959C91.397,93.491 89.783,93.055 88.16,92.64C87.194,94.423 84.483,99.123 81.043,102.713C82.153,103.31 83.525,104.181 84.242,105.424C84.452,105.788 84.607,106.185 84.678,106.615C84.708,106.798 84.724,106.981 84.724,107.163C84.725,108.194 84.237,109.219 83.264,110.214C82.498,111.004 81.402,111.328 80.156,111.328M77.048,95.666L77.041,95.653C77.043,95.652 77.046,95.65 77.048,95.649L77.008,95.586L77.811,94.436C77.607,94.785 77.356,95.194 77.048,95.666M78.583,75.517C78.552,75.512 78.521,75.508 78.488,75.505C78.523,75.5 78.558,75.495 78.593,75.49L78.583,75.517M60.733,70.993C60.729,70.988 60.724,70.983 60.72,70.978C60.246,70.403 59.833,69.798 59.473,69.174C59.163,68.636 58.892,68.084 58.655,67.526C59.06,67.533 59.429,67.548 59.754,67.566C60.219,68.568 60.81,69.536 61.557,70.425C61.446,70.502 61.328,70.584 61.205,70.669C61.053,70.773 60.895,70.883 60.733,70.993M62.216,70.916C62.186,70.885 62.156,70.854 62.127,70.822L62.128,70.822C62.157,70.854 62.187,70.885 62.216,70.916M61.689,70.332C60.968,69.476 60.394,68.544 59.938,67.578C59.947,67.578 59.955,67.579 59.964,67.58C60.415,68.542 60.982,69.472 61.694,70.329C61.692,70.33 61.69,70.331 61.689,70.332M59.67,66.908C59.661,66.907 59.651,66.907 59.642,66.906C58.563,64.279 58.292,61.481 58.292,59.334C58.292,58.266 58.359,57.361 58.426,56.72C58.46,56.401 58.493,56.147 58.518,55.973C58.53,55.886 58.541,55.818 58.548,55.772L58.557,55.719L58.561,55.686L58.561,55.685L58.59,55.727C58.594,55.706 58.597,55.696 58.597,55.696C58.602,55.696 57.518,61.631 59.67,66.908M59.464,66.898C59.139,66.883 58.782,66.873 58.395,66.87C57.4,64.203 57.143,61.438 57.143,59.295C57.143,57.817 57.265,56.636 57.35,55.985C56.899,55.335 48.188,42.73 48.188,42.73L50.484,42.942L50.593,42.945C50.593,42.945 60.498,43.781 61.413,43.86C62.233,43.058 64.329,41.113 66.811,39.639C67.742,39.087 68.758,38.577 69.9,38.078C70.111,37.882 71.773,36.348 72.1,36.047C72.265,35.55 74.99,27.168 74.99,27.168L75.084,27.272L75.116,27.176C75.116,27.176 81.567,34.391 82.031,34.909C83.415,35.145 88.138,36.01 90.363,37.38C93.491,39.3 95.261,41.479 96.005,42.537C96.378,42.5 96.855,42.468 97.403,42.468C97.58,42.468 97.765,42.471 97.956,42.479C99.257,42.521 100.891,42.77 102.382,43.557C102.09,43.809 101.794,44.057 101.512,44.287C100.111,43.627 98.581,43.463 97.399,43.463C96.407,43.463 95.657,43.579 95.426,43.62C95.271,43.365 94.798,42.635 93.944,41.697C93.023,40.677 91.646,39.401 89.727,38.225C87.385,36.785 81.864,35.905 81.407,35.832L75.406,29.12L72.965,36.621L73.118,36.671L75.472,29.437L75.497,29.465L73.164,36.652L71.013,38.636C69.836,39.108 68.494,39.725 67.199,40.492C64.148,42.299 61.648,44.91 61.645,44.913L61.698,44.963L61.275,44.928L50.221,43.923L58.39,55.738C58.342,56.043 58.13,57.435 58.13,59.334C58.131,61.471 58.397,64.263 59.464,66.898M58.522,55.628L58.504,55.618L50.551,44.115L50.568,44.116L58.522,55.628M105.128,48.726C104.804,47.604 104.301,46.67 103.713,45.971C103.639,45.884 103.564,45.8 103.487,45.719C103.076,45.274 102.618,44.912 102.135,44.62C102.411,44.392 102.696,44.15 102.976,43.905C103.536,44.268 104.063,44.718 104.533,45.275C104.824,45.614 105.081,45.987 105.309,46.384C105.662,46.996 105.947,47.671 106.158,48.395C105.814,48.521 105.466,48.631 105.128,48.726M61.821,44.973L61.812,44.972C61.879,44.905 62.01,44.773 62.197,44.591C62.598,44.204 63.255,43.592 64.079,42.912C62.713,44.045 61.821,44.973 61.821,44.973" style="fill:rgb(79,76,76);fill-rule:nonzero;"/>
        </g>
        <g transform="matrix(4.16667,0,0,4.16667,0,19.3796)">
            <path d="M80.159,109.031C78.156,109.031 75.463,108.032 73.278,106.684C71.089,105.339 69.418,103.633 69.425,102.29C69.426,102.032 69.485,101.787 69.613,101.555C70.505,99.949 72.072,99.787 72.674,99.786C72.824,99.786 72.911,99.797 72.912,99.797L72.944,99.8L72.965,99.779C72.966,99.777 74.883,97.85 76.113,96.12C77.437,94.253 78.133,93.019 78.466,92.366C78.522,92.368 78.578,92.369 78.634,92.369L78.656,92.369C80.002,92.369 81.333,91.802 82.373,90.412C82.663,90.028 82.881,89.662 83.034,89.311C83.468,89.394 84.44,89.586 85.801,89.895C86.316,90.011 86.886,90.145 87.503,90.295C87.444,90.41 87.193,90.892 86.782,91.617C85.489,93.902 82.615,98.596 79.214,101.769C79.122,101.714 79.065,101.667 79.065,101.658L78.952,101.717C78.984,101.769 79.038,101.81 79.118,101.859C78.819,102.135 78.516,102.398 78.209,102.647L78.289,102.746C78.608,102.487 78.922,102.213 79.233,101.925C79.727,102.198 80.812,102.676 81.776,103.36C82.744,104.047 83.576,104.936 83.574,106.012C83.574,106.679 83.259,107.432 82.44,108.274C81.931,108.799 81.13,109.031 80.162,109.031L80.159,109.031M67.008,97.65C66.112,97.65 65.271,97.553 64.485,97.379C64.542,96.878 62.811,95.257 63.424,93.736C64.197,91.818 66.959,91.07 66.959,91.07C66.959,91.07 63.578,89.424 61.601,88.394C60.288,87.711 59.424,87.105 58.604,87.105C58.187,87.105 57.78,87.262 57.331,87.646C57.075,87.864 56.9,88.155 56.796,88.498C56.86,88.238 56.957,88.005 57.089,87.807C57.476,87.23 57.944,87.004 58.515,87.003L58.521,87.003C59.553,87.003 60.918,87.777 62.535,88.689C64.157,89.603 66.037,90.649 68.13,91.175C68.967,91.383 69.787,91.47 70.573,91.47C71.915,91.47 73.16,91.215 74.231,90.866C75.492,91.647 76.909,92.275 78.326,92.359C78.204,92.596 78.036,92.906 77.811,93.289L77.008,94.439L77.048,94.502C77.046,94.503 77.043,94.505 77.041,94.506L77.009,94.451C74.998,95.588 72.487,96.916 69.253,97.456C68.471,97.588 67.722,97.65 67.008,97.65M75.088,97.238L75.077,97.129L76.351,95.559C76.242,95.715 76.128,95.878 76.009,96.046C75.729,96.44 75.411,96.847 75.088,97.238M104.916,94.479C104.819,94.46 104.419,94.382 103.801,94.254C101.662,93.814 96.927,92.796 93.294,91.702C88.259,90.187 84.187,89.368 83.096,89.159C83.235,88.797 83.303,88.451 83.303,88.12C83.305,87.311 82.89,86.65 82.308,86.148C81.431,85.39 80.161,84.905 78.992,84.522C78.566,84.384 78.153,84.261 77.78,84.148C77.89,83.908 78.037,83.59 78.207,83.222C78.592,82.391 79.098,81.305 79.583,80.29C80.034,79.341 80.496,78.012 80.499,76.82C80.498,76.178 80.362,75.556 79.961,75.081C79.649,74.708 79.184,74.46 78.583,74.371L78.593,74.343C81.991,73.852 85.518,72.658 89.053,70.765L89.104,70.889C89.064,70.888 89.038,70.888 89.027,70.888L89.021,70.888L89.023,71.015L89.029,71.015C89.143,71.015 90.677,71.027 92.408,71.562C93.61,71.929 95.058,72.922 96.471,72.924L96.475,72.924C97.176,72.924 97.869,72.671 98.5,71.977C99.344,71.046 99.754,69.752 100.297,68.7C100.844,67.645 101.501,66.846 102.85,66.845C103.189,66.845 103.571,66.895 104.007,67.007C105.342,67.355 105.804,68.225 105.809,69.333C105.813,71.45 104.031,74.382 103.12,75.662C102.013,77.211 101.061,78.606 98.995,78.607C98.441,78.607 97.804,78.505 97.061,78.278C94.827,77.593 93.649,77.464 93.076,77.464C92.778,77.464 92.644,77.499 92.612,77.51C92.553,76.212 92.413,75.046 92.413,75.044L92.252,75.063C92.252,75.065 92.308,75.522 92.363,76.184C92.394,76.556 92.426,76.992 92.446,77.446C92.177,76.726 91.358,75.914 89.035,75.901L88.966,75.901C84.836,75.901 84.265,78.421 83.802,79.962C82.981,82.64 88.457,83.597 88.457,83.597L89.369,83.744C91.811,84.493 96.495,85.908 98.915,86.484C100.972,86.971 105.381,87.957 105.381,87.957L105.419,87.965L105.448,87.942C105.449,87.941 105.74,87.717 106.235,87.377C107.719,86.358 111.039,84.327 113.738,84.327L113.745,84.327C115.401,84.332 116.812,85.068 117.489,87.288L117.508,87.418C117.51,87.651 117.328,87.959 116.987,88.297C115.796,89.488 112.765,91.044 110.041,92.292C108.679,92.916 107.392,93.465 106.446,93.859C105.603,94.208 105.032,94.433 104.916,94.479M78.624,91.715C77.183,91.716 75.601,90.997 74.224,90.087C72.843,89.178 71.667,88.087 71.011,87.403C70.447,86.805 70.269,86.294 70.266,85.779C70.264,85.242 70.482,84.674 70.789,84.068C71.092,83.463 71.477,82.828 71.76,82.139C72.505,80.314 72.985,78.642 73.74,77.399C74.503,76.158 75.477,75.326 77.37,75.04C77.619,75.004 77.845,74.988 78.048,74.988L78.048,74.988C78.79,74.991 79.204,75.2 79.463,75.503C79.724,75.808 79.847,76.266 79.846,76.82C79.849,77.841 79.419,79.123 78.995,80.007C78.268,81.53 77.496,83.201 77.151,83.953C76.793,83.836 76.507,83.729 76.353,83.64L76.032,84.208C76.409,84.419 76.99,84.589 77.688,84.802C78.73,85.116 80.011,85.502 81.005,86.048C81.502,86.319 81.922,86.63 82.208,86.973C82.494,87.318 82.649,87.683 82.651,88.12C82.652,88.62 82.435,89.246 81.853,90.018C80.903,91.268 79.815,91.71 78.634,91.715L78.624,91.715M91.555,84.24C91.203,84.134 90.864,84.032 90.543,83.934L91.486,84.086C91.486,84.086 91.702,83.562 91.899,82.9C91.775,83.371 91.635,83.782 91.471,84.14L91.565,84.184L91.555,84.24M92.203,81.394C92.206,81.358 92.207,81.322 92.208,81.286C92.234,80.463 92.387,79.407 92.47,78.878C92.464,79.16 92.449,79.429 92.424,79.672C92.357,80.306 92.285,80.878 92.203,81.394M75.067,74.44L75.066,74.44C71.322,74.44 67.806,73.529 64.694,71.71C63.735,71.15 62.915,70.493 62.216,69.769C62.187,69.739 62.157,69.707 62.128,69.676C62.553,69.377 62.841,69.171 62.843,69.17L62.464,68.638C62.463,68.639 62.148,68.863 61.694,69.182C60.982,68.325 60.415,67.395 59.964,66.433C60.16,66.445 60.338,66.459 60.497,66.473C60.774,66.498 60.991,66.522 61.137,66.541C61.283,66.559 61.356,66.571 61.357,66.571L61.457,65.925C61.448,65.924 60.779,65.819 59.67,65.761C57.518,60.485 58.602,54.549 58.597,54.549C58.597,54.549 58.594,54.559 58.59,54.58L58.561,54.538L58.559,54.524L58.549,54.497L58.522,54.482L50.568,42.97L63.744,44.168L63.758,44.007L61.809,43.829C61.81,43.828 61.811,43.827 61.812,43.826L61.821,43.827C61.821,43.827 62.713,42.898 64.079,41.765C64.984,41.018 66.092,40.189 67.281,39.484C69.015,38.457 70.839,37.699 72.23,37.198C72.926,36.948 73.512,36.761 73.925,36.638C74.337,36.515 74.575,36.454 74.575,36.454L74.536,36.297C74.533,36.298 73.011,36.686 71.013,37.489L73.164,35.505L75.497,28.318L81.324,34.836L81.353,34.841C81.356,34.841 82.827,35.065 84.602,35.475C86.376,35.884 88.454,36.482 89.642,37.215C91.664,38.455 93.078,39.804 93.987,40.843C94.441,41.362 94.769,41.804 94.983,42.115C95.197,42.426 95.295,42.604 95.296,42.605L95.325,42.656L95.383,42.645C95.383,42.645 95.589,42.603 95.946,42.562C96.302,42.519 96.807,42.477 97.399,42.477L97.403,42.477C98.551,42.477 100.022,42.637 101.374,43.254C101.368,43.259 101.363,43.264 101.357,43.268C100.252,42.794 99.086,42.642 98.045,42.642C96.179,42.642 94.715,43.131 94.715,43.131L92.821,42.373C92.241,40.785 90.865,39.203 88.966,38.022L88.982,38.014L88.44,37.713C86.785,36.797 85.059,36.343 83.534,36.342C82.643,36.343 81.818,36.498 81.118,36.819C80.42,37.138 79.845,37.63 79.483,38.285C79.205,38.788 79.074,39.347 79.074,39.924C79.088,42.136 80.919,44.602 83.766,46.182C85.01,46.868 86.295,47.296 87.504,47.466C87.611,47.79 87.739,48.362 87.622,49.056C86.913,49.116 85.657,49.946 84.677,50.461L84.653,50.473C84.166,50.73 83.5,50.993 82.95,51.294C82.394,51.599 81.937,51.939 81.931,52.394C81.931,52.518 81.967,52.646 82.044,52.777C82.156,52.959 82.361,53.106 82.628,53.222C80.751,53.757 78.858,53.94 78.141,53.993C77.845,51.822 76.229,49.619 73.761,48.251C72.291,47.437 70.734,47.041 69.293,47.041L69.286,47.041C67.196,47.041 65.323,47.888 64.404,49.546C64.032,50.22 63.857,50.962 63.857,51.721C63.864,54.107 65.55,56.644 68.29,58.159L68.289,58.158C69.759,58.972 71.317,59.367 72.759,59.368L72.766,59.368C72.991,59.368 73.214,59.358 73.433,59.338C72.188,60.313 68.954,63.207 70.259,66.062C72.218,70.347 76.948,71.446 81.283,71.446C84.862,71.446 88.172,70.697 89.432,70.374C84.523,73.088 79.625,74.44 75.067,74.44M97.134,65.176C103.418,59.739 105.484,54.462 105.484,50.45C105.484,49.889 105.443,49.354 105.369,48.846C105.344,48.634 105.311,48.424 105.27,48.218C105.276,48.216 105.282,48.214 105.287,48.213C106.177,52.341 104.728,58.639 97.134,65.176M99.517,62.685C100.066,62.041 100.596,61.356 101.095,60.631C103.327,57.391 104.794,54.342 105.263,51.634C104.95,54.805 103.35,58.647 99.517,62.685M105.114,47.583C105.047,47.356 104.969,47.132 104.879,46.913C104.562,46.061 104.139,45.337 103.657,44.767C103.602,44.7 103.545,44.635 103.487,44.572C103.564,44.654 103.639,44.737 103.713,44.825C104.301,45.523 104.804,46.457 105.128,47.579C105.123,47.581 105.118,47.582 105.114,47.583M61.701,43.82L61.275,43.781L61.698,43.817L61.701,43.82M102.156,43.676C102.105,43.646 102.052,43.615 102,43.586C102.001,43.585 102.002,43.584 102.004,43.583C102.054,43.613 102.105,43.645 102.156,43.676M95.408,42.475C95.292,42.279 94.83,41.533 93.944,40.551C94.798,41.488 95.271,42.218 95.426,42.473C95.419,42.474 95.413,42.475 95.408,42.475M81.407,34.685L81.406,34.685L79.263,32.287L81.407,34.685" style="fill:rgb(249,181,77);fill-rule:nonzero;"/>
        </g>
        <g transform="matrix(4.16667,0,0,4.16667,0,216.425)">
            <path d="M64.198,50.244C64.141,50.244 64.074,50.239 63.996,50.228C62.891,50.081 61.79,49.499 60.594,48.511C61.666,49.266 62.944,49.869 64.412,50.202C64.367,50.229 64.296,50.244 64.198,50.244M64.485,50.088C62.367,49.617 60.654,48.581 59.378,47.335C57.631,45.628 56.711,43.525 56.712,41.971C56.712,41.697 56.74,41.441 56.796,41.207C56.9,40.864 57.075,40.573 57.331,40.355C57.78,39.971 58.187,39.814 58.604,39.814C59.424,39.814 60.288,40.42 61.601,41.103C63.578,42.133 66.959,43.779 66.959,43.779C66.959,43.779 64.197,44.527 63.424,46.445C62.811,47.966 64.542,49.587 64.485,50.088" style="fill:white;fill-rule:nonzero;"/>
        </g>
        <g transform="matrix(4.16667,0,0,4.16667,0,113.707)">
            <path d="M91.486,61.448L90.543,61.296C90.005,61.132 89.519,60.984 89.114,60.858C88.335,60.619 87.852,60.468 87.85,60.468L87.802,60.622C87.803,60.622 88.415,60.813 89.369,61.106L88.457,60.959C88.457,60.959 82.981,60.001 83.802,57.323C84.265,55.782 84.836,53.262 88.966,53.262L89.035,53.262C91.358,53.276 92.177,54.087 92.446,54.808C92.463,55.162 92.474,55.526 92.474,55.879C92.474,56.001 92.473,56.122 92.47,56.239C92.387,56.768 92.234,57.824 92.208,58.648C92.207,58.683 92.206,58.719 92.203,58.756C92.114,59.319 92.014,59.818 91.899,60.261C91.702,60.923 91.486,61.448 91.486,61.448" style="fill:white;fill-rule:nonzero;"/>
        </g>
        <g transform="matrix(4.16667,0,0,4.16667,0,-78.6605)">
            <path d="M81.283,94.976C76.948,94.976 72.218,93.877 70.259,89.592C68.954,86.737 72.188,83.843 73.433,82.867C75.247,82.705 76.824,81.873 77.642,80.394L77.642,80.395C78.014,79.722 78.19,78.979 78.19,78.22C78.189,77.99 78.172,77.756 78.141,77.523C78.858,77.47 80.751,77.286 82.628,76.751C83.261,77.027 84.246,77.132 85.186,77.137C86.235,77.134 87.212,77 87.592,76.746C88.116,76.374 88.306,75.183 88.311,74.177C88.309,73.529 88.231,72.971 88.059,72.737C87.977,72.628 87.845,72.583 87.697,72.583L87.694,72.583C87.67,72.583 87.647,72.584 87.622,72.586C87.739,71.892 87.611,71.32 87.504,70.996C87.904,71.052 88.295,71.081 88.674,71.081C89.565,71.081 90.388,70.925 91.087,70.605C91.785,70.284 92.358,69.793 92.72,69.137C92.997,68.635 93.127,68.079 93.127,67.504C93.124,66.98 93.018,66.441 92.821,65.903L94.715,66.66C94.715,66.66 96.179,66.172 98.045,66.172C99.086,66.172 100.252,66.324 101.357,66.797C100.969,67.113 100.619,67.39 100.361,67.591C100.086,67.806 99.917,67.934 99.916,67.934L100.311,68.455C100.315,68.451 101.085,67.869 102,67.115C102.052,67.144 102.105,67.175 102.156,67.206C102.655,67.521 103.123,67.913 103.535,68.4C104.121,69.096 104.623,70.032 104.944,71.159C104.523,71.272 104.123,71.361 103.772,71.43C103.384,71.507 103.056,71.558 102.825,71.59C102.595,71.624 102.467,71.636 102.467,71.636L102.533,72.286C102.544,72.284 103.701,72.168 105.101,71.793C105.243,72.467 105.322,73.198 105.322,73.98C105.322,74.362 105.303,74.758 105.263,75.164C104.794,77.872 103.327,80.921 101.095,84.16C100.596,84.885 100.066,85.57 99.517,86.215C98.535,87.249 97.407,88.296 96.117,89.348C93.906,91.149 91.668,92.668 89.432,93.904C88.172,94.227 84.862,94.976 81.283,94.976M78.694,83.419L78.374,83.482C78.684,85.045 79.217,86.691 80.312,87.969C81.404,89.244 83.069,90.114 85.497,90.114L85.518,90.114C86.404,90.114 87.393,90.001 88.499,89.759C92.176,88.95 94.425,86.076 95.75,83.451C97.079,80.82 97.504,78.406 97.507,78.386L97.608,77.818L97.069,78.025C97.068,78.025 96.764,78.142 96.261,78.331C94.753,78.897 91.463,80.106 89.353,80.701L89.354,80.701C87.945,81.095 85.257,81.697 82.93,82.197C81.766,82.447 80.69,82.673 79.907,82.836C79.122,82.999 78.63,83.098 78.629,83.099L78.312,83.164L78.374,83.482L78.694,83.419L78.759,83.738L78.694,83.419M90.45,93.509C92.381,92.374 94.311,91.029 96.219,89.473C96.467,89.271 96.71,89.068 96.947,88.866C94.197,91.376 91.514,92.936 90.45,93.509M85.518,89.461C83.228,89.456 81.791,88.679 80.807,87.543C79.894,86.483 79.386,85.079 79.08,83.673C80.587,83.364 86.996,82.039 89.53,81.329C91.811,80.686 95.371,79.365 96.74,78.848C96.519,79.776 95.976,81.696 94.918,83.634C93.611,86.029 91.543,88.425 88.359,89.121C87.292,89.355 86.349,89.461 85.518,89.461M105.369,72.376C105.337,72.163 105.3,71.954 105.257,71.751C105.261,71.75 105.266,71.748 105.27,71.747C105.311,71.953 105.344,72.163 105.369,72.376M105.1,71.116C105.033,70.884 104.96,70.66 104.879,70.443C104.969,70.662 105.047,70.885 105.114,71.113C105.109,71.114 105.105,71.115 105.1,71.116" style="fill:white;fill-rule:nonzero;"/>
        </g>
        <g transform="matrix(4.16667,0,0,4.16667,0,-125.509)">
            <path d="M75.066,109.376C71.296,109.376 67.75,108.457 64.612,106.623C63.59,106.025 62.725,105.321 61.993,104.543C62.039,104.51 62.084,104.48 62.127,104.449C62.156,104.48 62.186,104.512 62.216,104.543C62.915,105.267 63.735,105.924 64.694,106.483C67.806,108.302 71.322,109.214 75.066,109.214L75.067,109.214C79.625,109.214 84.523,107.861 89.432,105.147C91.668,103.912 93.906,102.393 96.117,100.592C97.407,99.539 98.535,98.492 99.517,97.458C103.35,93.42 104.95,89.578 105.263,86.407C105.303,86.001 105.322,85.606 105.322,85.223C105.322,84.442 105.243,83.71 105.101,83.037C105.152,83.023 105.204,83.009 105.257,82.994C105.3,83.198 105.337,83.406 105.369,83.62C105.443,84.127 105.484,84.663 105.484,85.223C105.484,89.235 103.418,94.512 97.134,99.949C97.072,100.002 97.01,100.056 96.947,100.11C96.71,100.312 96.467,100.514 96.219,100.717C94.311,102.272 92.381,103.618 90.45,104.753C89.983,105.027 89.518,105.288 89.053,105.538C85.518,107.432 81.991,108.625 78.593,109.117C78.558,109.122 78.523,109.127 78.488,109.132C78.354,109.116 78.213,109.107 78.065,109.107L78.048,109.107C77.809,109.107 77.553,109.127 77.277,109.167C76.982,109.209 76.706,109.265 76.445,109.335C75.983,109.362 75.522,109.376 75.066,109.376M61.557,104.051C60.81,103.163 60.219,102.194 59.754,101.193C59.817,101.196 59.879,101.2 59.938,101.204C60.394,102.17 60.968,103.103 61.689,103.959C61.646,103.989 61.602,104.02 61.557,104.051M59.642,100.533C59.584,100.53 59.525,100.527 59.464,100.524C58.397,97.889 58.131,95.098 58.13,92.96C58.13,91.062 58.342,89.67 58.39,89.364L50.221,77.549L61.275,78.554L61.701,78.593L61.762,78.651C61.762,78.651 61.778,78.635 61.809,78.602L63.758,78.78L63.744,78.941L50.568,77.743L50.551,77.742L58.504,89.245L58.522,89.255L58.549,89.271L58.559,89.297L58.561,89.311L58.561,89.312L58.557,89.345L58.548,89.399C58.541,89.445 58.53,89.512 58.518,89.599C58.493,89.774 58.46,90.027 58.426,90.347C58.359,90.987 58.292,91.892 58.292,92.96C58.292,95.108 58.563,97.905 59.642,100.533M104.944,82.403C104.623,81.275 104.121,80.34 103.535,79.644C103.123,79.156 102.655,78.764 102.156,78.45C102.105,78.418 102.054,78.386 102.004,78.357C102.047,78.32 102.091,78.284 102.135,78.247C102.618,78.538 103.076,78.901 103.487,79.346C103.545,79.409 103.602,79.473 103.657,79.54C104.139,80.11 104.562,80.835 104.879,81.687C104.96,81.903 105.033,82.127 105.1,82.36C105.048,82.375 104.995,82.389 104.944,82.403M101.374,78.028C100.022,77.41 98.551,77.25 97.403,77.25L97.399,77.25C96.807,77.25 96.302,77.293 95.946,77.335C95.589,77.377 95.383,77.418 95.383,77.418L95.325,77.43L95.296,77.378C95.295,77.378 95.197,77.199 94.983,76.888C94.769,76.577 94.441,76.135 93.987,75.616C93.078,74.577 91.664,73.228 89.642,71.988C88.454,71.255 86.376,70.657 84.602,70.248C82.827,69.838 81.356,69.614 81.353,69.614L81.324,69.61L75.497,63.091L75.472,63.064L73.118,70.297L72.965,70.248L75.406,62.747L81.406,69.459L81.407,69.459C81.864,69.532 87.385,70.411 89.727,71.851C91.646,73.028 93.023,74.303 93.944,75.324C94.83,76.306 95.292,77.053 95.408,77.249C95.413,77.248 95.419,77.247 95.426,77.246C95.657,77.206 96.407,77.089 97.399,77.089C98.581,77.089 100.111,77.254 101.512,77.914C101.486,77.936 101.461,77.957 101.435,77.978C101.414,77.995 101.394,78.011 101.374,78.028" style="fill:rgb(104,86,74);fill-rule:nonzero;"/>
        </g>
        <g transform="matrix(4.16667,0,0,4.16667,0,-218.844)">
            <path d="M61.762,101.052L61.701,100.994L61.698,100.99L61.645,100.94C61.648,100.937 64.148,98.326 67.199,96.519C68.494,95.752 69.836,95.135 71.013,94.663C73.011,93.859 74.533,93.472 74.536,93.471L74.575,93.628C74.575,93.628 74.337,93.688 73.925,93.812C73.512,93.935 72.926,94.122 72.23,94.372C70.839,94.873 69.015,95.631 67.281,96.658C66.092,97.362 64.984,98.192 64.079,98.939C63.255,99.618 62.598,100.23 62.197,100.618C62.01,100.8 61.879,100.932 61.812,100.999C61.811,101.001 61.81,101.002 61.809,101.003C61.778,101.035 61.762,101.052 61.762,101.052" style="fill:rgb(104,86,74);fill-rule:nonzero;"/>
        </g>
        <g transform="matrix(4.16667,0,0,4.16667,0,-109.538)">
            <path d="M72.757,89.654C71.436,89.654 69.982,89.289 68.605,88.527L68.603,88.525L68.604,88.527C66.03,87.111 64.503,84.729 64.51,82.661C64.51,82.002 64.661,81.374 64.976,80.802C65.747,79.404 67.364,78.636 69.293,78.635L69.295,78.635C70.615,78.635 72.068,79 73.445,79.762L73.604,79.477L73.445,79.762C76.014,81.179 77.544,83.562 77.536,85.631C77.536,86.29 77.386,86.918 77.071,87.489C76.302,88.886 74.687,89.653 72.759,89.654L72.757,89.654M73.12,84.145C72.965,84.145 72.81,84.181 72.667,84.258C72.162,84.524 71.988,85.185 72.278,85.731C72.484,86.125 72.874,86.356 73.264,86.356C73.418,86.356 73.574,86.32 73.716,86.244C74.223,85.976 74.4,85.315 74.102,84.764C73.894,84.374 73.507,84.145 73.12,84.145" style="fill:white;fill-rule:nonzero;"/>
        </g>
        <g transform="matrix(4.16667,0,0,4.16667,0,-109.538)">
            <path d="M72.766,90.308L72.759,90.308C71.317,90.307 69.759,89.912 68.289,89.098L68.29,89.099C65.55,87.584 63.864,85.047 63.857,82.661C63.857,81.902 64.032,81.16 64.404,80.487C65.323,78.828 67.196,77.981 69.286,77.981L69.293,77.981C70.734,77.981 72.291,78.377 73.761,79.191C76.229,80.559 77.845,82.762 78.141,84.933C78.172,85.167 78.189,85.4 78.19,85.631C78.19,86.39 78.014,87.132 77.642,87.806L77.642,87.805C76.824,89.283 75.247,90.116 73.433,90.278C73.214,90.298 72.991,90.308 72.766,90.308M68.603,88.525L68.605,88.527C69.982,89.289 71.436,89.654 72.757,89.654L72.759,89.654C74.687,89.653 76.302,88.886 77.071,87.489C77.386,86.918 77.536,86.29 77.536,85.631C77.544,83.562 76.014,81.179 73.445,79.762L73.604,79.477L73.445,79.762C72.068,79 70.615,78.635 69.295,78.635L69.293,78.635C67.364,78.636 65.747,79.404 64.976,80.802C64.661,81.374 64.51,82.002 64.51,82.661C64.503,84.729 66.03,87.111 68.604,88.527L68.603,88.525" style="fill:rgb(104,86,74);fill-rule:nonzero;"/>
        </g>
        <g transform="matrix(4.16667,0,0,4.16667,0,-203.35)">
            <path d="M88.671,100.353C87.278,100.353 85.648,99.931 84.08,99.065C81.372,97.578 79.712,95.215 79.727,93.379C79.727,92.9 79.834,92.457 80.054,92.056C80.342,91.538 80.795,91.142 81.39,90.868C81.985,90.595 82.717,90.451 83.532,90.451L83.538,90.451C84.922,90.451 86.537,90.867 88.091,91.721L88.124,91.74C90.83,93.225 92.489,95.594 92.475,97.429C92.474,97.907 92.368,98.348 92.149,98.746C91.861,99.266 91.408,99.662 90.815,99.936C90.222,100.21 89.49,100.353 88.677,100.353L88.671,100.353M88.675,95.656C88.52,95.656 88.366,95.692 88.221,95.769C87.717,96.035 87.541,96.699 87.831,97.25C88.039,97.643 88.43,97.869 88.82,97.869C88.975,97.869 89.129,97.833 89.272,97.758C89.779,97.49 89.947,96.827 89.658,96.277C89.451,95.885 89.064,95.656 88.675,95.656" style="fill:white;fill-rule:nonzero;"/>
        </g>
        <g transform="matrix(4.16667,0,0,4.16667,0,-203.35)">
            <path d="M88.674,101.007C88.295,101.006 87.904,100.978 87.504,100.921C86.295,100.751 85.01,100.323 83.766,99.637C80.919,98.057 79.088,95.591 79.074,93.379C79.074,92.802 79.205,92.243 79.483,91.74C79.845,91.085 80.42,90.593 81.118,90.274C81.818,89.953 82.643,89.798 83.534,89.797C85.059,89.798 86.785,90.252 88.44,91.168L88.982,91.469L88.966,91.477C90.865,92.658 92.241,94.24 92.821,95.828C93.018,96.366 93.124,96.905 93.127,97.429C93.127,98.004 92.997,98.56 92.72,99.062C92.358,99.718 91.785,100.21 91.087,100.53C90.388,100.851 89.565,101.006 88.674,101.007M83.532,90.451C82.717,90.451 81.985,90.595 81.39,90.868C80.795,91.142 80.342,91.538 80.054,92.056C79.834,92.457 79.727,92.9 79.727,93.379C79.712,95.215 81.372,97.578 84.08,99.064C85.648,99.931 87.278,100.353 88.671,100.353L88.677,100.353C89.49,100.353 90.222,100.21 90.815,99.936C91.408,99.662 91.861,99.266 92.149,98.746C92.368,98.348 92.474,97.907 92.475,97.429C92.489,95.594 90.83,93.225 88.124,91.74L88.091,91.721C86.537,90.867 84.922,90.451 83.538,90.451L83.532,90.451" style="fill:rgb(104,86,74);fill-rule:nonzero;"/>
        </g>
        <g transform="matrix(4.16667,0,0,4.16667,0,-100.32)">
            <path d="M73.264,84.144C72.874,84.144 72.484,83.913 72.278,83.518C71.988,82.973 72.162,82.312 72.667,82.046C72.81,81.969 72.965,81.933 73.12,81.933C73.507,81.933 73.894,82.162 74.102,82.552C74.4,83.103 74.223,83.764 73.716,84.032C73.574,84.108 73.418,84.144 73.264,84.144" style="fill:rgb(79,76,76);fill-rule:nonzero;"/>
        </g>
        <g transform="matrix(4.16667,0,0,4.16667,0,-192.015)">
            <path d="M88.82,95.148C88.43,95.148 88.039,94.922 87.831,94.53C87.541,93.978 87.717,93.315 88.221,93.048C88.366,92.972 88.52,92.935 88.675,92.935C89.064,92.935 89.451,93.164 89.658,93.556C89.947,94.106 89.779,94.77 89.272,95.038C89.129,95.113 88.975,95.148 88.82,95.148" style="fill:rgb(79,76,76);fill-rule:nonzero;"/>
        </g>
        <g transform="matrix(4.16667,0,0,4.16667,0,-125.156)">
            <path d="M85.135,88.169C83.83,88.169 82.439,87.913 82.154,87.401C82.087,87.286 82.058,87.181 82.058,87.083C82.052,86.729 82.457,86.392 83.01,86.094C83.56,85.794 84.238,85.527 84.737,85.261L84.771,85.244L84.771,85.243C85.774,84.707 87.083,83.869 87.687,83.869L87.694,83.869C87.821,83.87 87.904,83.904 87.957,83.973L87.957,83.973C88.092,84.142 88.187,84.704 88.184,85.336C88.189,86.323 87.964,87.509 87.521,87.8C87.205,88.019 86.234,88.169 85.211,88.169L85.135,88.169" style="fill:rgb(129,112,106);fill-rule:nonzero;"/>
        </g>
        <g transform="matrix(4.16667,0,0,4.16667,0,-125.157)">
            <path d="M85.186,88.296C84.246,88.291 83.261,88.186 82.628,87.91C82.361,87.794 82.156,87.647 82.044,87.465C81.967,87.335 81.931,87.207 81.931,87.083C81.937,86.627 82.394,86.288 82.95,85.982C83.5,85.682 84.166,85.418 84.653,85.162L84.677,85.149C85.657,84.634 86.913,83.805 87.622,83.745C87.647,83.743 87.67,83.742 87.694,83.742L87.697,83.742C87.845,83.742 87.977,83.787 88.059,83.896C88.231,84.13 88.309,84.688 88.311,85.336C88.306,86.342 88.116,87.533 87.592,87.905C87.212,88.159 86.235,88.293 85.186,88.296M84.771,85.243L84.771,85.244L84.737,85.261C84.238,85.527 83.56,85.794 83.01,86.094C82.457,86.392 82.052,86.729 82.058,87.083C82.058,87.181 82.087,87.286 82.154,87.401C82.439,87.913 83.83,88.169 85.135,88.169L85.211,88.169C86.234,88.169 87.205,88.019 87.521,87.8C87.964,87.509 88.189,86.323 88.184,85.336C88.187,84.704 88.092,84.142 87.957,83.973L87.957,83.973C87.904,83.904 87.821,83.87 87.694,83.869L87.687,83.869C87.083,83.869 85.774,84.707 84.771,85.243M84.737,85.261L84.738,85.261L84.738,85.26L84.737,85.26L84.737,85.261Z" style="fill:rgb(104,86,74);fill-rule:nonzero;"/>
        </g>
        <g transform="matrix(4.16667,0,0,4.16667,0,0.747375)">
            <path d="M51.232,71.627L51.23,71.619L51.054,71.012L51.05,71C51.072,70.993 52.757,70.508 56.151,70.265L56.152,70.265C56.883,70.214 57.567,70.194 58.183,70.194C58.255,70.194 58.325,70.195 58.395,70.195C58.782,70.198 59.139,70.208 59.464,70.223C59.525,70.225 59.584,70.229 59.642,70.231C59.651,70.232 59.661,70.232 59.67,70.233C60.779,70.291 61.448,70.395 61.457,70.397L61.357,71.042C61.356,71.042 61.283,71.031 61.137,71.012C60.991,70.994 60.774,70.969 60.497,70.945C60.338,70.931 60.16,70.917 59.964,70.904C59.955,70.904 59.947,70.903 59.938,70.903C59.879,70.899 59.817,70.895 59.754,70.891C59.429,70.873 59.06,70.858 58.655,70.851C58.503,70.848 58.345,70.847 58.183,70.847C57.58,70.847 56.912,70.866 56.197,70.917C53.268,71.126 51.647,71.518 51.302,71.608L51.232,71.627" style="fill:rgb(104,86,74);fill-rule:nonzero;"/>
        </g>
        <g transform="matrix(4.16667,0,0,4.16667,0,39.0569)">
            <path d="M55.321,68.711L55.069,68.108C55.07,68.108 55.776,67.811 56.631,67.425C57.486,67.04 58.494,66.561 59.065,66.217L59.064,66.217C59.132,66.175 59.204,66.131 59.28,66.084C59.708,65.816 60.233,65.464 60.733,65.124C60.895,65.014 61.053,64.904 61.205,64.799C61.328,64.715 61.446,64.632 61.557,64.555C61.602,64.524 61.646,64.493 61.689,64.463C61.69,64.461 61.692,64.461 61.694,64.46C62.148,64.141 62.463,63.917 62.464,63.916L62.843,64.447C62.841,64.449 62.553,64.655 62.128,64.953L62.127,64.953C62.084,64.984 62.039,65.014 61.993,65.047C61.745,65.22 61.461,65.417 61.164,65.62C60.554,66.037 59.895,66.477 59.402,66.776C58.777,67.152 57.766,67.629 56.9,68.02C56.035,68.411 55.323,68.71 55.321,68.711" style="fill:rgb(104,86,74);fill-rule:nonzero;"/>
        </g>
        <g transform="matrix(4.16667,0,0,4.16667,0,141.689)">
            <path d="M78.656,63.015L78.634,63.015C78.578,63.015 78.522,63.014 78.466,63.011C78.657,62.637 78.727,62.453 78.729,62.451L78.61,62.405C78.61,62.405 78.578,62.487 78.497,62.66C78.454,62.751 78.398,62.865 78.326,63.005C76.909,62.921 75.492,62.293 74.231,61.512C74.323,61.482 74.414,61.451 74.502,61.42L74.461,61.3C74.34,61.342 74.216,61.383 74.09,61.423C74.014,61.376 73.94,61.327 73.865,61.278C72.428,60.33 71.225,59.214 70.54,58.502L70.54,58.501C69.885,57.819 69.61,57.11 69.613,56.425C69.615,55.713 69.887,55.056 70.206,54.421C70.526,53.785 70.901,53.163 71.157,52.538C71.888,50.754 72.363,49.066 73.183,47.706C73.88,46.539 74.877,45.628 76.445,45.207C76.706,45.138 76.982,45.081 77.277,45.04C77.553,45 77.809,44.98 78.048,44.98L78.065,44.98C78.213,44.98 78.354,44.988 78.488,45.004C78.521,45.007 78.552,45.012 78.583,45.016C79.184,45.105 79.649,45.354 79.961,45.727C80.362,46.202 80.498,46.823 80.499,47.465C80.496,48.658 80.034,49.986 79.583,50.936C79.098,51.951 78.592,53.037 78.207,53.868C78.037,54.236 77.89,54.554 77.78,54.794C78.153,54.907 78.566,55.03 78.992,55.168C80.161,55.551 81.431,56.036 82.308,56.793C82.89,57.296 83.305,57.957 83.303,58.766C83.303,59.097 83.235,59.442 83.096,59.805C82.908,59.769 82.808,59.751 82.808,59.751L82.78,59.91C82.781,59.911 82.868,59.926 83.034,59.957C82.881,60.308 82.663,60.674 82.373,61.058C81.333,62.448 80.002,63.015 78.656,63.015M71.011,58.049C71.667,58.733 72.843,59.824 74.224,60.733C75.601,61.643 77.183,62.362 78.624,62.361L78.634,62.361C79.815,62.355 80.903,61.914 81.853,60.664C82.435,59.892 82.652,59.265 82.651,58.766C82.649,58.329 82.494,57.964 82.208,57.619C81.922,57.276 81.502,56.965 81.005,56.694C80.011,56.148 78.73,55.762 77.688,55.448C76.99,55.235 76.409,55.064 76.032,54.854L76.353,54.286C76.507,54.374 76.793,54.482 77.151,54.599C77.496,53.847 78.268,52.175 78.995,50.653C79.419,49.769 79.849,48.487 79.846,47.465C79.847,46.912 79.724,46.454 79.463,46.149C79.204,45.846 78.79,45.637 78.048,45.633L78.048,45.633C77.845,45.633 77.619,45.65 77.37,45.686C75.477,45.972 74.503,46.804 73.74,48.045C72.985,49.288 72.505,50.96 71.76,52.785C71.477,53.473 71.092,54.109 70.789,54.714C70.482,55.32 70.264,55.888 70.266,56.425C70.269,56.94 70.447,57.451 71.011,58.049M71.012,58.05L71.013,58.05L71.013,58.049L71.012,58.049L71.012,58.05Z" style="fill:rgb(104,86,74);fill-rule:nonzero;"/>
        </g>
        <g transform="matrix(4.16667,0,0,4.16667,0,53.1393)">
            <path d="M98.995,70.631C98.425,70.631 97.776,70.528 97.024,70.297C94.797,69.614 93.63,69.489 93.076,69.489C92.832,69.489 92.708,69.514 92.665,69.524L92.647,69.529L92.612,69.434C92.612,69.425 92.612,69.416 92.612,69.407C92.644,69.396 92.778,69.362 93.076,69.362C93.649,69.362 94.827,69.49 97.061,70.175C97.804,70.403 98.441,70.504 98.995,70.504C101.061,70.503 102.013,69.108 103.12,67.56C104.031,66.28 105.813,63.348 105.809,61.23C105.804,60.122 105.342,59.253 104.007,58.905C103.571,58.793 103.189,58.742 102.85,58.742C101.501,58.744 100.844,59.543 100.297,60.597C99.754,61.65 99.344,62.943 98.5,63.875C97.869,64.568 97.176,64.822 96.475,64.822L96.471,64.822C95.058,64.819 93.61,63.827 92.408,63.46C90.677,62.925 89.143,62.913 89.029,62.913L89.023,62.913L89.021,62.786L89.027,62.786C89.038,62.786 89.064,62.786 89.104,62.786C89.451,62.793 90.865,62.85 92.446,63.338C93.673,63.718 95.112,64.695 96.465,64.695L96.471,64.695C97.143,64.694 97.793,64.46 98.406,63.789C99.226,62.888 99.636,61.606 100.184,60.539C100.73,59.476 101.438,58.615 102.845,58.615L102.85,58.615C103.201,58.615 103.594,58.668 104.038,58.781C105.425,59.134 105.941,60.088 105.936,61.23C105.934,63.413 104.14,66.34 103.223,67.634C102.125,69.174 101.131,70.631 98.995,70.631" style="fill:rgb(104,86,74);fill-rule:nonzero;"/>
        </g>
        <g transform="matrix(4.16667,0,0,4.16667,0,110.642)">
            <path d="M91.618,62.305L91.565,62.281L91.471,62.238C91.635,61.879 91.775,61.469 91.899,60.997C92.014,60.553 92.114,60.055 92.203,59.491C92.285,58.975 92.357,58.404 92.424,57.769C92.449,57.526 92.464,57.257 92.47,56.975C92.473,56.857 92.474,56.737 92.474,56.615C92.474,56.262 92.463,55.897 92.446,55.544C92.426,55.089 92.394,54.653 92.363,54.281C92.308,53.62 92.252,53.162 92.252,53.16L92.413,53.141C92.413,53.143 92.553,54.31 92.612,55.607C92.612,55.615 92.612,55.624 92.612,55.633C92.626,55.958 92.636,56.291 92.636,56.615C92.636,57.03 92.621,57.431 92.584,57.786C92.367,59.855 92.089,61.27 91.618,62.305" style="fill:rgb(104,86,74);fill-rule:nonzero;"/>
        </g>
        <g transform="matrix(4.16667,0,0,4.16667,0,187.731)">
            <path d="M104.931,54.242L104.908,54.238C104.907,54.237 98.104,52.915 93.247,51.453C91.16,50.824 89.239,50.316 87.628,49.922L87.517,49.864C87.516,49.865 87.512,49.874 87.503,49.891C86.886,49.741 86.316,49.607 85.801,49.491C84.44,49.182 83.468,48.99 83.034,48.907C82.868,48.875 82.781,48.86 82.78,48.86L82.808,48.701C82.808,48.701 82.908,48.718 83.096,48.755C84.187,48.963 88.259,49.782 93.294,51.298C96.927,52.391 101.662,53.409 103.801,53.85C104.419,53.977 104.819,54.056 104.916,54.075C105.032,54.029 105.603,53.804 106.446,53.454C107.392,53.061 108.679,52.512 110.041,51.887C112.765,50.64 115.796,49.084 116.987,47.893C117.328,47.554 117.51,47.247 117.508,47.014L117.489,46.884C116.812,44.664 115.401,43.928 113.745,43.923L113.738,43.923C111.039,43.923 107.719,45.954 106.235,46.973C105.74,47.313 105.449,47.537 105.448,47.538L105.419,47.561L105.381,47.553C105.381,47.553 100.972,46.567 98.915,46.079C96.495,45.503 91.811,44.089 89.369,43.34C88.415,43.048 87.803,42.857 87.802,42.856L87.85,42.702C87.852,42.702 88.335,42.853 89.114,43.092C89.519,43.218 90.005,43.366 90.543,43.53C90.864,43.627 91.203,43.729 91.555,43.836C91.748,43.894 91.944,43.953 92.144,44.013C94.5,44.718 97.277,45.523 98.953,45.922C99.98,46.165 101.596,46.534 102.955,46.841C104.171,47.116 105.179,47.342 105.38,47.386C105.79,47.078 110.217,43.766 113.745,43.761L113.761,43.761C115.461,43.761 116.963,44.567 117.644,46.837L117.669,47.014C117.667,47.328 117.452,47.655 117.101,48.008C116.748,48.359 116.25,48.734 115.654,49.123C114.461,49.899 112.876,50.725 111.291,51.481C108.122,52.995 104.955,54.233 104.953,54.234L104.931,54.242" style="fill:rgb(104,86,74);fill-rule:nonzero;"/>
        </g>
        <g transform="matrix(4.16667,0,0,4.16667,0,284.253)">
            <path d="M80.162,45.589C78.119,45.588 75.414,44.58 73.211,43.223C71.012,41.863 69.306,40.165 69.298,38.72C69.298,38.442 69.363,38.174 69.501,37.924C70.424,36.262 72.048,36.09 72.67,36.09L72.674,36.09C72.779,36.09 72.856,36.095 72.896,36.098C72.994,35.997 73.43,35.553 73.984,34.942C74.325,34.567 74.71,34.128 75.088,33.669C75.411,33.278 75.729,32.871 76.009,32.476C76.128,32.309 76.242,32.146 76.351,31.989C76.586,31.649 76.799,31.331 76.99,31.038C77.018,31.023 77.045,31.007 77.072,30.993L77.048,30.95C77.356,30.478 77.607,30.068 77.811,29.72C78.036,29.337 78.204,29.027 78.326,28.789C78.398,28.65 78.454,28.535 78.497,28.445C78.578,28.272 78.61,28.19 78.61,28.19L78.729,28.236C78.727,28.237 78.657,28.422 78.466,28.796C78.133,29.45 77.437,30.684 76.113,32.55C74.883,34.28 72.966,36.208 72.965,36.209L72.944,36.231L72.913,36.227C72.911,36.227 72.824,36.217 72.674,36.217C72.072,36.217 70.505,36.379 69.613,37.985C69.485,38.217 69.426,38.462 69.425,38.72C69.418,40.064 71.089,41.77 73.278,43.115C75.463,44.463 78.156,45.462 80.159,45.462L80.162,45.462C81.13,45.462 81.931,45.229 82.44,44.704C83.259,43.862 83.574,43.11 83.574,42.442C83.576,41.366 82.744,40.477 81.776,39.791C80.812,39.106 79.727,38.629 79.233,38.356C79.265,38.326 79.298,38.295 79.331,38.264C79.463,38.337 79.636,38.423 79.836,38.524C80.278,38.747 80.854,39.039 81.425,39.402C82.562,40.126 83.698,41.131 83.701,42.442C83.701,43.151 83.364,43.937 82.532,44.793C81.986,45.354 81.148,45.589 80.162,45.589M79.118,38.289C79.038,38.24 78.984,38.2 78.952,38.147L79.065,38.088C79.065,38.098 79.122,38.144 79.214,38.2C79.182,38.23 79.15,38.259 79.118,38.289" style="fill:rgb(104,86,74);fill-rule:nonzero;"/>
        </g>
        <g transform="matrix(4.16667,0,0,4.16667,0,251.32)">
            <path d="M78.289,47.08L78.209,46.981C78.516,46.732 78.819,46.469 79.118,46.193C79.15,46.163 79.182,46.133 79.214,46.104C82.615,42.931 85.489,38.236 86.782,35.952C87.193,35.226 87.444,34.744 87.503,34.63C87.512,34.612 87.516,34.604 87.517,34.603L87.628,34.66L87.63,34.661C87.627,34.665 83.988,41.808 79.331,46.168C79.298,46.199 79.265,46.23 79.233,46.26C78.922,46.547 78.608,46.822 78.289,47.08" style="fill:rgb(104,86,74);fill-rule:nonzero;"/>
        </g>
        <g transform="matrix(4.16667,0,0,4.16667,0,216.474)">
            <path d="M67.008,50.474C66.086,50.474 65.221,50.373 64.412,50.19C62.944,49.857 61.666,49.254 60.594,48.499C57.982,46.66 56.587,43.915 56.585,41.959C56.585,41.364 56.714,40.839 56.983,40.433C57.384,39.829 57.905,39.572 58.509,39.572L58.515,39.572C59.609,39.576 60.975,40.365 62.597,41.276C64.218,42.189 66.09,43.229 68.16,43.748C68.988,43.954 69.796,44.041 70.573,44.041C71.857,44.041 73.052,43.803 74.09,43.474C74.216,43.435 74.34,43.394 74.461,43.352L74.502,43.472C74.414,43.503 74.323,43.533 74.231,43.563C73.16,43.912 71.915,44.168 70.573,44.168C69.787,44.168 68.967,44.081 68.13,43.872C66.037,43.347 64.157,42.3 62.535,41.387C60.918,40.474 59.553,39.7 58.521,39.7L58.515,39.7C57.944,39.702 57.476,39.927 57.089,40.504C56.957,40.703 56.86,40.935 56.796,41.196C56.74,41.429 56.712,41.686 56.712,41.959C56.711,43.513 57.631,45.616 59.378,47.323C60.654,48.569 62.367,49.605 64.485,50.076C65.271,50.251 66.112,50.347 67.008,50.347C67.722,50.347 68.471,50.285 69.253,50.153C72.487,49.614 74.998,48.285 77.009,47.148L77.041,47.204L77.048,47.217L77.072,47.259C77.045,47.274 77.018,47.29 76.99,47.305C74.99,48.434 72.487,49.743 69.274,50.279C68.486,50.412 67.73,50.474 67.008,50.474" style="fill:rgb(104,86,74);fill-rule:nonzero;"/>
        </g>
        <g transform="matrix(4.16667,0,0,4.16667,0,-207.99)">
            <path d="M100.311,99.494L99.916,98.973C99.917,98.973 100.086,98.845 100.361,98.63C100.619,98.429 100.969,98.152 101.357,97.836C101.363,97.832 101.368,97.828 101.374,97.823C101.394,97.806 101.414,97.79 101.435,97.773C101.461,97.752 101.486,97.731 101.512,97.709C101.794,97.479 102.09,97.231 102.382,96.979C102.94,96.497 103.482,96.001 103.863,95.588C105.097,94.256 105.74,92.815 105.874,92.49L105.902,92.424L105.912,92.428L106.499,92.652L106.511,92.656C106.502,92.679 105.843,94.407 104.342,96.032C103.974,96.429 103.486,96.882 102.976,97.327C102.696,97.572 102.411,97.814 102.135,98.042C102.091,98.08 102.047,98.115 102.004,98.152C102.002,98.153 102.001,98.154 102,98.154C101.085,98.908 100.315,99.491 100.311,99.494" style="fill:rgb(104,86,74);fill-rule:nonzero;"/>
        </g>
        <g transform="matrix(4.16667,0,0,4.16667,0,-159.826)">
            <path d="M102.533,91.766L102.467,91.116C102.467,91.116 102.595,91.103 102.825,91.07C103.056,91.038 103.384,90.986 103.772,90.91C104.123,90.841 104.523,90.751 104.944,90.639C104.995,90.625 105.048,90.611 105.1,90.596C105.105,90.595 105.109,90.594 105.114,90.593C105.118,90.591 105.123,90.59 105.128,90.589C105.466,90.494 105.814,90.383 106.158,90.257C106.277,90.213 106.394,90.168 106.511,90.12C108.174,89.437 109.272,88.773 109.512,88.624L109.562,88.592L109.917,89.14C109.904,89.148 108.709,89.923 106.758,90.725L106.757,90.725C106.613,90.784 106.468,90.839 106.322,90.892C105.974,91.018 105.625,91.127 105.287,91.222C105.282,91.224 105.276,91.225 105.27,91.227C105.266,91.228 105.261,91.23 105.257,91.23C105.204,91.245 105.152,91.26 105.101,91.273C103.701,91.647 102.544,91.764 102.533,91.766" style="fill:rgb(104,86,74);fill-rule:nonzero;"/>
        </g>
        <g transform="matrix(4.16667,0,0,4.16667,0,-49.271)">
            <path d="M85.497,83.06C83.069,83.06 81.404,82.191 80.312,80.915C79.217,79.638 78.684,77.991 78.374,76.428L78.694,76.365L78.759,76.685L78.694,76.365L78.374,76.428L78.312,76.11L78.629,76.046C78.63,76.045 79.122,75.945 79.907,75.782C80.69,75.62 81.766,75.394 82.93,75.144C85.257,74.644 87.945,74.042 89.354,73.647L89.353,73.647C91.463,73.053 94.753,71.844 96.261,71.277C96.764,71.089 97.068,70.972 97.069,70.972L97.608,70.765L97.507,71.333C97.504,71.352 97.079,73.767 95.75,76.398C94.425,79.023 92.176,81.897 88.499,82.705C87.393,82.948 86.404,83.06 85.518,83.06L85.497,83.06M79.08,76.619C79.386,78.025 79.894,79.429 80.807,80.489C81.791,81.626 83.228,82.402 85.518,82.407C86.349,82.407 87.292,82.302 88.359,82.068C91.543,81.372 93.611,78.975 94.918,76.58C95.976,74.642 96.519,72.722 96.74,71.795C95.371,72.311 91.811,73.632 89.53,74.276C86.996,74.985 80.587,76.31 79.08,76.619" style="fill:rgb(104,86,74);fill-rule:nonzero;"/>
        </g>
        <g transform="matrix(4.16667,0,0,4.16667,0,-94.6563)">
            <path d="M107.772,82.359L107.773,82.358L107.772,82.359" style="fill:rgb(104,86,74);fill-rule:nonzero;"/>
        </g>
    </g>
    <g id="Pfeil">
        <g transform="matrix(4.16667,0,0,4.16667,0,-100.082)">
            <path d="M82.131,95.138L122.877,71.6C123.075,71.485 123.143,71.231 123.029,71.032C122.914,70.834 122.66,70.766 122.462,70.88L81.716,94.419C81.517,94.535 81.449,94.788 81.565,94.986C81.679,95.186 81.932,95.254 82.131,95.138" style="fill:rgb(41,171,226);fill-rule:nonzero;"/>
        </g>
        <g transform="matrix(-2.55144,3.29413,3.29413,2.55144,516.988,-447.689)">
            <path d="M118.799,95.37L125.937,95.37L123.464,93.463L123.892,90.372L118.799,95.37" style="fill:rgb(41,171,226);fill-rule:nonzero;"/>
        </g>
    </g>
    <g transform="matrix(4.16667,0,0,4.16667,0,-70.6609)">
        <path d="M81.923,87.718L81.923,71.241C88.019,71.241 93.34,74.554 96.188,79.478L81.923,87.718" style="fill:rgb(41,171,226);fill-rule:nonzero;"/>
    </g>
    <g transform="matrix(4.16667,0,0,4.16667,0,-247.331)">
        <path d="M82.202,130.104L82.202,71.256C82.202,71.141 82.109,71.048 81.995,71.048C81.88,71.048 81.787,71.141 81.787,71.256L81.787,130.104C81.787,130.218 81.88,130.311 81.995,130.311C82.109,130.311 82.202,130.218 82.202,130.104" style="fill:rgb(34,30,31);fill-rule:nonzero;"/>
    </g>
    <g id="Drehpunkt">
        <g transform="matrix(4.16667,0,0,4.16667,0,-2.00333)">
            <path d="M81.923,76.364C80.556,76.364 79.271,75.83 78.303,74.863C76.307,72.865 76.307,69.615 78.303,67.618C79.271,66.65 80.556,66.117 81.923,66.117C83.291,66.117 84.577,66.65 85.544,67.618C86.511,68.585 87.044,69.871 87.044,71.24C87.044,72.609 86.511,73.896 85.544,74.863C84.577,75.83 83.291,76.364 81.923,76.364" style="fill:rgb(235,9,140);fill-rule:nonzero;"/>
        </g>
        <g transform="matrix(4.16667,0,0,4.16667,0,-2.00338)">
            <path d="M81.923,65.702C80.445,65.702 79.055,66.278 78.01,67.325C76.965,68.37 76.389,69.761 76.389,71.24C76.389,72.72 76.965,74.111 78.01,75.156C79.055,76.203 80.445,76.779 81.923,76.779C83.402,76.779 84.792,76.203 85.837,75.156C86.883,74.111 87.459,72.72 87.459,71.24C87.459,69.761 86.883,68.37 85.837,67.325C84.792,66.278 83.402,65.702 81.923,65.702ZM81.923,66.532C83.127,66.532 84.332,66.992 85.25,67.912C87.088,69.75 87.088,72.731 85.25,74.569C84.332,75.488 83.127,75.948 81.923,75.948C80.72,75.948 79.516,75.488 78.597,74.569C76.76,72.731 76.76,69.75 78.597,67.912C79.516,66.992 80.72,66.532 81.923,66.532" style="fill:rgb(235,9,140);fill-rule:nonzero;"/>
        </g>
        <g transform="matrix(4.16667,0,0,4.16667,0,-2.00338)">
            <path d="M85.25,67.912L81.923,71.24L85.25,74.569C83.413,76.408 80.434,76.408 78.597,74.569L81.923,71.24L78.597,67.912C80.434,66.073 83.413,66.073 85.25,67.912" style="fill:white;fill-rule:nonzero;"/>
        </g>
    </g>
    <g transform="matrix(4.1641,0,0,4.16667,0.373215,5.92119e-14)">
        <text x="145.162px" y="73.556px" style="font-family:'Verdana', sans-serif;font-size:8.304px;fill:rgb(34,30,31);">90</text>
    </g>
    <g transform="matrix(4.1641,0,0,4.16667,0.320407,5.92119e-14)">
        <text x="124.622px" y="121.459px" style="font-family:'Verdana', sans-serif;font-size:8.304px;fill:rgb(34,30,31);">135</text>
    </g>
    <g transform="matrix(4.1641,0,0,4.16667,0.321823,1.4803e-14)">
        <text x="125.173px" y="26.98px" style="font-family:'Verdana', sans-serif;font-size:8.304px;fill:rgb(34,30,31);">45</text>
    </g>
    <g transform="matrix(4.1641,0,0,4.16667,0.20353,9.25186e-16)">
        <text x="79.163px" y="8px" style="font-family:'Verdana', sans-serif;font-size:8.304px;fill:rgb(34,30,31);">0</text>
    </g>
    <g transform="matrix(4.1641,0,0,4.16667,0.185699,1.18424e-13)">
        <text x="72.228px" y="139.482px" style="font-family:'Verdana', sans-serif;font-size:8.304px;fill:rgb(34,30,31);">180</text>
    </g>
    <g transform="matrix(4.1641,0,0,4.16667,0.0549658,5.92119e-14)">
        <text x="21.379px" y="123.15px" style="font-family:'Verdana', sans-serif;font-size:8.304px;fill:rgb(34,30,31);">-135</text>
    </g>
    <g transform="matrix(4.1641,0,0,4.16667,0.0615311,1.4803e-14)">
        <text x="23.933px" y="25.439px" style="font-family:'Verdana', sans-serif;font-size:8.304px;fill:rgb(34,30,31);">-45</text>
    </g>
    <g transform="matrix(4.1641,0,0,4.16667,0,5.92119e-14)">
        <text x="0px" y="73.555px" style="font-family:'Verdana', sans-serif;font-size:8.304px;fill:rgb(34,30,31);">-90</text>
    </g>
    <g transform="matrix(4.1641,0,0,4.16667,0.245348,2.96059e-14)">
        <text x="95.428px" y="41.027px" style="font-family:'LucidaGrande', 'Lucida Grande', sans-serif;font-weight:500;font-size:9.965px;fill:rgb(41,171,226);">6<tspan x="100.541px 105.654px " y="41.027px 41.027px ">0</tspan></text>
    </g>
</svg>
