<?xml version="1.0" encoding="UTF-8" standalone="no"?>
<!DOCTYPE svg PUBLIC "-//W3C//DTD SVG 1.1//EN" "http://www.w3.org/Graphics/SVG/1.1/DTD/svg11.dtd">
<svg width="100%" height="100%" viewBox="0 0 184 140" version="1.1" xmlns="http://www.w3.org/2000/svg" xmlns:xlink="http://www.w3.org/1999/xlink" xml:space="preserve" xmlns:serif="http://www.serif.com/" style="fill-rule:evenodd;clip-rule:evenodd;stroke-miterlimit:10;">
    <rect x="0" y="0" width="184" height="140" style="fill:white;"/>
    <g id="Bühne" transform="matrix(0.998632,0,0,0.999779,0,2.8634e-06)">
        <rect x="7.086" y="6.236" width="170.079" height="127.559" style="fill:white;stroke:rgb(35,31,32);stroke-width:1px;"/>
    </g>
    <g transform="matrix(6.11621e-17,-0.998853,1,6.12323e-17,148.729,79.6028)">
        <text x="0px" y="0px" style="font-family:'Verdana', sans-serif;font-size:10px;">300</text>
    </g>
    <g id="Dreieck" transform="matrix(6.12323e-17,-1,1,6.12323e-17,19.2899,162)">
        <g transform="matrix(0.998632,0,0,0.999779,38.9231,118.723)">
            <path d="M0,0L106.299,0" style="fill:none;fill-rule:nonzero;stroke:rgb(0,0,255);stroke-width:1px;stroke-linecap:round;"/>
        </g>
        <g transform="matrix(0.499835,-0.865739,-0.864599,-0.499954,100.929,112.2)">
            <path d="M-36.726,50.549L69.574,50.549" style="fill:none;fill-rule:nonzero;stroke:rgb(0,0,255);stroke-width:1px;stroke-linecap:round;"/>
        </g>
        <g transform="matrix(-0.499835,-0.865739,-0.864599,0.499954,154.061,33.2186)">
            <path d="M-69.574,50.549L36.726,50.549" style="fill:none;fill-rule:nonzero;stroke:rgb(0,0,255);stroke-width:1px;stroke-linecap:round;"/>
        </g>
    </g>
</svg>
