<?xml version="1.0" encoding="UTF-8" standalone="no"?>
<!DOCTYPE svg PUBLIC "-//W3C//DTD SVG 1.1//EN" "http://www.w3.org/Graphics/SVG/1.1/DTD/svg11.dtd">
<svg width="100%" height="100%" viewBox="0 0 184 140" version="1.1" xmlns="http://www.w3.org/2000/svg" xmlns:xlink="http://www.w3.org/1999/xlink" xml:space="preserve" xmlns:serif="http://www.serif.com/" style="fill-rule:evenodd;clip-rule:evenodd;stroke-miterlimit:10;">
    <rect x="0" y="0" width="184" height="140" style="fill:white;"/>
    <g transform="matrix(0.998632,0,0,0.999779,0,2.8634e-06)">
        <rect x="7.086" y="6.236" width="170.079" height="127.559" style="fill:white;stroke:rgb(35,31,32);stroke-width:1px;"/>
    </g>
    <g transform="matrix(-0.70614,0.70695,0.70614,0.70695,92,87.7124)">
        <path d="M-30.244,-12.528L5.189,-12.528" style="fill:none;fill-rule:nonzero;stroke:rgb(0,0,255);stroke-width:1px;stroke-linecap:round;"/>
    </g>
    <g transform="matrix(-0.70614,-0.70695,-0.70614,0.70695,117.021,52.2871)">
        <path d="M-30.244,12.528L5.189,12.528" style="fill:none;fill-rule:nonzero;stroke:rgb(0,0,255);stroke-width:1px;stroke-linecap:round;"/>
    </g>
    <g transform="matrix(-0.70614,0.70695,0.70614,0.70695,142.041,87.7124)">
        <path d="M-30.244,-12.528L5.189,-12.528" style="fill:none;fill-rule:nonzero;stroke:rgb(0,0,255);stroke-width:1px;stroke-linecap:round;"/>
    </g>
    <g transform="matrix(-0.70614,-0.70695,-0.70614,0.70695,66.9793,52.2871)">
        <path d="M-30.244,12.528L5.189,12.528" style="fill:none;fill-rule:nonzero;stroke:rgb(0,0,255);stroke-width:1px;stroke-linecap:round;"/>
    </g>
    <g transform="matrix(-0.70614,0.70695,0.70614,0.70695,41.9585,87.7124)">
        <path d="M-30.244,-12.528L5.189,-12.528" style="fill:none;fill-rule:nonzero;stroke:rgb(0,0,255);stroke-width:1px;stroke-linecap:round;"/>
    </g>
    <g transform="matrix(0.706702,-0.707513,0.706702,0.707513,-0.0612903,0.0613606)">
        <text x="-29.602px" y="75.615px" style="font-family:'Verdana', sans-serif;font-size:9.992px;">100</text>
    </g>
    <g transform="matrix(-0.998632,0,0,0.999779,44.4606,73.1679)">
        <path d="M-20.044,-5.535C-14.509,0 -5.535,0 0,-5.535" style="fill:none;fill-rule:nonzero;stroke:rgb(35,31,32);stroke-width:1px;"/>
    </g>
    <g transform="matrix(-0.707513,-0.706701,-0.706701,0.707513,145.147,52.514)">
        <path d="M54.469,72.363C53.687,72.364 53.053,72.999 53.054,73.781C53.053,74.563 53.687,75.197 54.469,75.195C55.252,75.195 55.885,74.56 55.885,73.777C55.885,72.996 55.251,72.362 54.469,72.363" style="fill:rgb(35,31,32);fill-rule:nonzero;"/>
    </g>
</svg>
